<svg width="211" height="210" viewBox="0 0 211 210" fill="none" xmlns="http://www.w3.org/2000/svg">
<g clip-path="url(#clip0)">
<path opacity="0.1" d="M89.3593 202.511C103.339 202.511 114.671 200.682 114.671 198.425C114.671 196.168 103.339 194.338 89.3593 194.338C75.38 194.338 64.0475 196.168 64.0475 198.425C64.0475 200.682 75.38 202.511 89.3593 202.511Z" fill="#660606"/>
<path opacity="0.1" d="M1.51877 80.1118H20.9086V112.879H2.93388C2.88748 113.219 2.84109 113.556 2.79047 113.894H20.9065V140.315L20.8158 140.274C20.3012 140.012 19.7929 139.751 19.291 139.473L18.9641 139.29C18.4495 138.992 17.9413 138.676 17.4393 138.341C17.2622 138.226 17.085 138.106 16.91 137.98C14.0804 136.024 11.5087 133.543 9.28397 130.623C9.21859 130.544 9.15743 130.461 9.09627 130.382C8.78836 129.966 8.48467 129.543 8.18942 129.111L7.86253 128.63C7.51666 128.107 7.17922 127.558 6.85444 127.009C6.80594 126.928 6.75954 126.847 6.71103 126.769C5.38022 124.487 4.27695 122.013 3.42527 119.403C3.39785 119.325 3.37465 119.238 3.34935 119.16C3.08362 118.331 2.8453 117.492 2.63863 116.634C2.55216 116.276 2.46569 115.912 2.39399 115.552C2.36657 115.442 2.34548 115.335 2.32228 115.23C1.24882 109.982 1.12439 104.528 1.12439 99.1024C1.12439 98.4697 1.12439 97.8343 1.12439 97.2041C1.12439 95.013 1.14548 92.8088 1.17501 90.6046C1.18485 90.0346 1.19469 89.4637 1.20453 88.892C1.23195 87.4382 1.2678 85.9818 1.31841 84.528C1.33107 84.1254 1.34583 83.7201 1.3627 83.3201C1.3627 83.0873 1.37958 82.8546 1.39223 82.6219C1.4323 81.7826 1.47237 80.9433 1.51877 80.1118Z" fill="#660606"/>
<path opacity="0.1" d="M20.9086 43.6266H10.271C12.0001 40.2717 13.8896 37.0481 15.9293 33.9731C17.509 31.5649 19.1708 29.2196 20.9086 26.9604V43.6266Z" fill="#660606"/>
<path opacity="0.1" d="M20.9086 44.6407V79.0973H1.57788C1.57788 78.9979 1.59053 78.896 1.59897 78.7966C1.61584 78.5351 1.63271 78.2527 1.65169 77.9834C1.67067 77.667 1.69598 77.3454 1.71918 77.0264C1.74238 76.7075 1.77191 76.3362 1.79932 75.9806C1.82674 75.625 1.85626 75.2903 1.8879 74.9478C1.91953 74.6052 1.94906 74.2601 1.9828 73.9202C2.01654 73.5803 2.04818 73.2325 2.08403 72.89C2.11356 72.6076 2.14308 72.3252 2.17472 72.0402C2.21901 71.6402 2.2654 71.2375 2.31391 70.8401C2.31391 70.7799 2.32867 70.7198 2.335 70.6623C2.68372 67.7486 3.15893 64.8604 3.75855 62.0102C4.38601 59.0207 5.1874 56.0915 6.15644 53.2457C7.18436 50.2627 8.3898 47.3785 9.76277 44.6172L20.9086 44.6407Z" fill="#660606"/>
<path opacity="0.1" d="M25.5378 80.1118V112.882H66.9536V80.1118H25.5378ZM25.5378 113.894V142.036C25.774 142.096 26.0081 142.156 26.2422 142.206C26.5586 142.282 26.8749 142.35 27.1934 142.41C27.2545 142.41 27.3178 142.433 27.3811 142.441C27.5076 142.467 27.6362 142.488 27.7628 142.509C28.0812 142.564 28.3955 142.609 28.7224 142.645L29.1779 142.695L29.547 142.729C29.7473 142.747 29.9456 142.763 30.1438 142.771C30.2661 142.771 30.3884 142.771 30.5129 142.789H30.8039H31.1645C31.329 142.789 31.4935 142.789 31.6559 142.789H31.8668C32.0313 142.789 32.1958 142.789 32.3582 142.771H32.3688C32.4826 142.771 32.5965 142.771 32.7104 142.752C32.7427 142.755 32.7751 142.755 32.8074 142.752C32.9023 142.752 32.9972 142.752 33.09 142.737H33.1554L33.7881 142.674C33.999 142.65 34.2099 142.622 34.4208 142.593L34.8552 142.527C36.6276 142.22 38.3803 141.758 40.1002 141.144C43.9638 139.808 47.7347 137.939 51.6046 136.571C56.5965 134.806 62.1157 133.938 66.9368 136.087V113.889L25.5378 113.894ZM66.9536 43.6289V0.00252206C62.4197 -0.0592948 57.8979 0.597969 53.4985 1.95832C43.0043 5.22409 33.5941 12.3099 25.5378 21.3594V43.6289H27.6088V44.6408H25.5315V79.113H66.9536V44.6408H36.1501V43.6289H66.9536ZM120.161 28.8924C117.567 28.7773 114.987 27.7602 112.653 26.1862C108.192 23.1793 104.622 18.5329 100.646 14.6135C92.373 6.44777 82.1108 1.51905 71.587 0.297984V43.6289H130.705L130.851 43.4354L120.161 28.8924ZM125.547 27.6975L131.258 35.4684V25.6632C129.337 25.9639 127.662 26.6621 125.547 27.6975ZM131.258 149.02V113.889H119.081C119.049 113.74 119.016 113.588 118.978 113.436C119.013 113.588 119.045 113.74 119.079 113.889H71.587V139.293C72.0383 139.709 72.4833 140.145 72.9241 140.6C73.4007 141.082 73.871 141.573 74.3434 142.065L74.818 142.551C75.0457 142.786 75.2756 143.016 75.5055 143.249C75.9652 143.709 76.4285 144.164 76.8953 144.614C77.1273 144.841 77.3635 145.064 77.5976 145.286C81.3293 148.822 85.2654 152.013 89.374 154.835C90.2949 155.469 91.2243 156.086 92.1621 156.683C92.7863 157.081 93.4141 157.471 94.0454 157.855C94.993 158.428 95.9477 158.984 96.9093 159.52C105.792 164.458 115.184 167.844 124.817 169.582C126.956 169.972 129.103 170.28 131.258 170.505V149.02H131.448H131.258ZM71.587 44.6408V79.113H131.258V44.6408H71.587ZM71.587 80.1118V112.882H131.258V80.1118H71.587ZM135.889 25.6162V36.577L143.18 26.6594C140.765 26.1714 138.334 25.8236 135.889 25.6162ZM135.889 80.1118V112.882H193.926V80.1118H135.889ZM193.721 151.624L193.932 113.894H135.889V170.889C139.628 171.083 143.371 171.027 147.105 170.722H147.17C148.95 170.581 150.725 170.378 152.495 170.115H152.535C161.962 168.75 171.179 165.695 179.897 161.045L193.721 151.624ZM205.122 85.4955C204.903 84.8575 204.677 84.2248 204.445 83.5972C204.024 82.4232 203.558 81.2623 203.087 80.1118H198.559V112.882H210.007C209.996 103.6 208.102 94.124 205.122 85.4955ZM198.559 113.889V146.35C201.784 142.52 204.509 138.135 206.47 133.122C208.83 127.085 209.905 120.551 209.998 113.894L198.559 113.889ZM198.559 70.5577V79.113H202.663C201.42 76.1738 200.05 73.3197 198.559 70.5629V70.5577ZM159.208 32.0483C158.907 31.9045 158.603 31.7607 158.299 31.6221C155.096 30.1515 151.822 28.9289 148.497 27.9616L137.342 43.1268L137.132 43.4171L137.275 43.6106H176.957C171.43 38.9007 165.472 35.0195 159.208 32.0483ZM178.134 44.6434H136.703L135.889 45.5664V79.113H143.024H193.922V62.8496C189.321 55.9503 184.01 49.8286 178.126 44.6408L178.134 44.6434Z" fill="#660606"/>
<path opacity="0.1" d="M20.9086 62.0207V79.0974H1.57788C1.57788 78.998 1.59053 78.896 1.59897 78.7967C1.61584 78.5352 1.63271 78.2528 1.65169 77.9835C1.67067 77.6671 1.69598 77.3455 1.71918 77.0265C1.74238 76.7075 1.77191 76.3362 1.79932 75.9806C1.82674 75.625 1.85626 75.2903 1.8879 74.9478C1.91953 74.6053 1.94906 74.2602 1.9828 73.9202C2.01654 73.5803 2.04818 73.2326 2.08403 72.89C2.11356 72.6077 2.14308 72.3253 2.17472 72.0403C2.21901 71.6402 2.2654 71.2375 2.31391 70.8401C2.31391 70.78 2.32867 70.7198 2.335 70.6623C2.68372 67.7487 3.15893 64.8605 3.75855 62.0103L20.9086 62.0207Z" fill="#660606"/>
<path opacity="0.1" d="M1.51877 80.1118H20.9086V112.879H2.93388C2.88748 113.219 2.84109 113.556 2.79047 113.894H20.9065V140.315L20.8158 140.274C20.3012 140.012 19.7929 139.751 19.291 139.473L18.9641 139.29C18.4495 138.992 17.9413 138.676 17.4393 138.341C17.2622 138.226 17.085 138.106 16.91 137.98C14.0804 136.024 11.5087 133.543 9.28397 130.623C9.21859 130.544 9.15743 130.461 9.09627 130.382C8.78836 129.966 8.48467 129.543 8.18942 129.111L7.86253 128.63C7.51666 128.107 7.17922 127.558 6.85444 127.009C6.80594 126.928 6.75954 126.847 6.71103 126.769C5.38022 124.487 4.27695 122.013 3.42527 119.403C3.39785 119.325 3.37465 119.238 3.34935 119.16C3.08362 118.331 2.8453 117.492 2.63863 116.634C2.55216 116.276 2.46569 115.912 2.39399 115.552C2.36657 115.442 2.34548 115.335 2.32228 115.23C1.24882 109.982 1.12439 104.528 1.12439 99.1024C1.12439 98.4697 1.12439 97.8343 1.12439 97.2041C1.12439 95.013 1.14548 92.8088 1.17501 90.6046C1.18485 90.0346 1.19469 89.4637 1.20453 88.892C1.23195 87.4382 1.2678 85.9818 1.31841 84.528C1.33107 84.1254 1.34583 83.7201 1.3627 83.3201C1.3627 83.0873 1.37958 82.8546 1.39223 82.6219C1.4323 81.7826 1.47237 80.9433 1.51877 80.1118Z" fill="#660606"/>
<path opacity="0.1" d="M40.1191 49.5746V79.0999H25.5398V49.5746H27.6171V39.5786H36.1521V49.5746H40.1191Z" fill="#660606"/>
<path opacity="0.1" d="M40.1191 80.1118H25.5398V112.882H40.1191V80.1118Z" fill="#660606"/>
<path opacity="0.1" d="M25.5377 113.889H40.117V141.142C38.3975 141.753 36.6456 142.214 34.8741 142.522L34.4375 142.59L33.8049 142.671L33.1722 142.734H33.1068C33.014 142.734 32.9191 142.75 32.8242 142.752H32.7272C32.6112 142.752 32.4973 142.768 32.3834 142.771H32.3729C32.2105 142.771 32.0481 142.786 31.8815 142.789H31.6706C31.5082 142.789 31.3458 142.789 31.1792 142.789H30.8207C30.7216 142.789 30.6245 142.789 30.5275 142.789L30.1585 142.771C29.9623 142.771 29.762 142.745 29.5616 142.729L29.1947 142.695L28.737 142.643C28.4165 142.606 28.1043 142.562 27.7795 142.507L27.3978 142.441C27.3346 142.441 27.2713 142.42 27.2101 142.407C26.8917 142.347 26.5774 142.282 26.259 142.206C26.0228 142.154 25.7887 142.093 25.5525 142.033L25.5377 113.889Z" fill="#660606"/>
<path opacity="0.1" d="M131.26 46.0894H119.237V79.1H131.26V46.0894Z" fill="#660606"/>
<path opacity="0.1" d="M131.26 80.1118V112.882H71.5891V98.7494H103.373V107.085H119.237V80.1118H131.26Z" fill="#660606"/>
<path opacity="0.1" d="M131.45 149.031H131.26V170.529C129.105 170.302 126.958 169.994 124.819 169.606C115.185 167.859 105.793 164.463 96.9114 159.515C94.3483 158.083 91.8365 156.521 89.3761 154.83C85.2652 152.006 81.3264 148.814 77.5912 145.278C76.652 144.389 75.7261 143.479 74.8137 142.546C74.181 141.898 73.5483 141.239 72.9156 140.593C72.4748 140.151 72.0298 139.712 71.5764 139.286V113.889H119.079L118.98 113.437C119.015 113.588 119.049 113.737 119.081 113.889H131.26V149.015L131.45 149.031Z" fill="#660606"/>
<path opacity="0.1" d="M162.612 43.6264H154.779V40.609H158.289V31.6196C158.592 31.7582 158.896 31.8994 159.198 32.0458V40.609H162.61L162.612 43.6264Z" fill="#660606"/>
<path opacity="0.1" d="M181.489 79.0977H143.028L143.041 79.1108L143.024 79.0977H135.889V46.087H137.908V70.4849H147.145V56.0491H154.779V44.6411H162.61V56.0491H170.24V70.4849H181.487L181.489 79.0977Z" fill="#660606"/>
<path opacity="0.1" d="M135.889 80.1118V112.882H181.489V80.1118H135.889ZM193.863 151.449L193.926 125.511H181.483V113.889H135.889V170.889C139.627 171.083 143.371 171.027 147.105 170.722H147.17C148.95 170.581 150.725 170.378 152.495 170.115H152.535C161.962 168.75 171.179 165.695 179.897 161.045" fill="#660606"/>
<path opacity="0.1" d="M199.363 113.889H210C209.907 120.543 208.83 127.077 206.47 133.115C204.511 138.13 201.784 142.528 198.561 146.345V125.508H199.363V113.889Z" fill="#660606"/>
<path opacity="0.1" d="M210.007 112.88H199.363V85.4932H205.122C208.102 94.1243 209.998 103.6 210.007 112.88Z" fill="#660606"/>
<path opacity="0.1" d="M131.26 55.2646H124.819V65.6136H131.26V55.2646Z" fill="#660606"/>
<path opacity="0.1" d="M131.26 76.7183H124.819V79.1003H131.26V76.7183Z" fill="#660606"/>
<path opacity="0.1" d="M131.26 80.1118H124.819V87.0643H131.26V80.1118Z" fill="#660606"/>
<path opacity="0.1" d="M131.26 98.1689H124.819V108.518H131.26V98.1689Z" fill="#660606"/>
<path opacity="0.1" d="M131.26 119.623H124.819V129.972H131.26V119.623Z" fill="#660606"/>
<path opacity="0.1" d="M131.26 149.015L131.45 149.03H131.26V151.433H124.819V141.082H131.26V149.015Z" fill="#660606"/>
<path opacity="0.1" d="M131.26 162.522V170.515C129.105 170.289 126.958 169.981 124.819 169.592V162.522H131.26Z" fill="#660606"/>
<path opacity="0.1" d="M99.1912 112.121H71.5891V112.882H99.1912V112.121Z" fill="#660606"/>
<path opacity="0.1" d="M99.1912 113.894H71.5891V116.807H99.1912V113.894Z" fill="#660606"/>
<path opacity="0.1" d="M99.1912 126.358H71.5891V131.044H99.1912V126.358Z" fill="#660606"/>
<path opacity="0.1" d="M99.1891 140.595V145.278H77.5912C76.652 144.389 75.7262 143.478 74.8137 142.546C74.181 141.897 73.5483 141.238 72.9156 140.595H99.1891Z" fill="#660606"/>
<path opacity="0.1" d="M99.1891 154.827V159.515H96.9114C94.3469 158.082 91.8351 156.52 89.3761 154.827H99.1891Z" fill="#660606"/>
<path opacity="0.1" d="M152.54 83.2886H147.107V90.0241H152.54V83.2886Z" fill="#660606"/>
<path opacity="0.1" d="M34.8868 51.8994H29.4541V58.6349H34.8868V51.8994Z" fill="#660606"/>
<path opacity="0.1" d="M34.8868 67.5459H29.4541V74.2814H34.8868V67.5459Z" fill="#660606"/>
<path opacity="0.1" d="M34.8868 83.1948H29.4541V89.9303H34.8868V83.1948Z" fill="#660606"/>
<path opacity="0.1" d="M34.8868 98.8438H29.4541V105.579H34.8868V98.8438Z" fill="#660606"/>
<path opacity="0.1" d="M34.8868 114.493H29.4541V121.228H34.8868V114.493Z" fill="#660606"/>
<path opacity="0.1" d="M34.8868 130.142H29.4541V136.877H34.8868V130.142Z" fill="#660606"/>
<path opacity="0.1" d="M173.283 83.2886H167.851V90.0241H173.283V83.2886Z" fill="#660606"/>
<path opacity="0.1" d="M152.54 99.9053H147.107V106.641H152.54V99.9053Z" fill="#660606"/>
<path opacity="0.1" d="M173.283 99.9053H167.851V106.641H173.283V99.9053Z" fill="#660606"/>
<path opacity="0.1" d="M152.54 116.521H147.107V123.257H152.54V116.521Z" fill="#660606"/>
<path opacity="0.1" d="M173.283 116.521H167.851V123.257H173.283V116.521Z" fill="#660606"/>
<path opacity="0.1" d="M152.54 133.138H147.107V139.874H152.54V133.138Z" fill="#660606"/>
<path opacity="0.1" d="M173.283 133.138H167.851V139.874H173.283V133.138Z" fill="#660606"/>
<path opacity="0.1" d="M152.54 149.754H147.107V156.49H152.54V149.754Z" fill="#660606"/>
<path opacity="0.1" d="M173.283 149.754H167.851V156.49H173.283V149.754Z" fill="#660606"/>
<path opacity="0.1" d="M147.107 170.714V166.371H152.54V170.097L147.107 170.714Z" fill="#660606"/>
<path opacity="0.1" d="M2.31177 70.6729V74.5269H20.9065V70.6729H2.31177ZM4.16344 74.2864H2.63866V70.916H4.16344V74.2864ZM6.01511 74.2864H4.49033V70.916H6.01511V74.2864ZM7.86256 74.2864H6.33778V70.916H7.86256V74.2864ZM9.71423 74.2864H8.18945V70.916H9.71423V74.2864ZM11.5638 74.2864H10.039V70.916H11.5638V74.2864ZM13.4155 74.2864H11.8907V70.916H13.4155V74.2864ZM15.2671 74.2864H13.7423V70.916H15.2671V74.2864ZM17.1167 74.2864H15.5877V70.916H17.1125L17.1167 74.2864ZM18.9663 74.2864H17.4415V70.916H18.962L18.9663 74.2864ZM20.8158 74.2864H19.291V70.916H20.8158V74.2864Z" fill="#660606"/>
<path opacity="0.1" d="M2.31177 81.8926V85.7467H20.9065V81.8926H2.31177ZM4.16344 85.5035H2.63866V82.1357H4.16344V85.5035ZM6.01511 85.5035H4.49033V82.1357H6.01511V85.5035ZM7.86256 85.5035H6.33778V82.1357H7.86256V85.5035ZM9.71423 85.5035H8.18945V82.1357H9.71423V85.5035ZM11.5638 85.5035H10.039V82.1357H11.5638V85.5035ZM13.4155 85.5035H11.8907V82.1357H13.4155V85.5035ZM15.2671 85.5035H13.7423V82.1357H15.2671V85.5035ZM17.1167 85.5035H15.5877V82.1357H17.1125L17.1167 85.5035ZM18.9663 85.5035H17.4415V82.1357H18.962L18.9663 85.5035ZM20.8158 85.5035H19.291V82.1357H20.8158V85.5035Z" fill="#660606"/>
<path opacity="0.1" d="M2.31177 93.1123V96.9638H20.9065V93.1123H2.31177ZM4.16344 96.7206H2.63866V93.3529H4.16344V96.7206ZM6.01511 96.7206H4.49033V93.3529H6.01511V96.7206ZM7.86256 96.7206H6.33778V93.3529H7.86256V96.7206ZM9.71423 96.7206H8.18945V93.3529H9.71423V96.7206ZM11.5638 96.7206H10.039V93.3529H11.5638V96.7206ZM13.4155 96.7206H11.8907V93.3529H13.4155V96.7206ZM15.2671 96.7206H13.7423V93.3529H15.2671V96.7206ZM17.1167 96.7206H15.5877V93.3529H17.1125L17.1167 96.7206ZM18.9663 96.7206H17.4415V93.3529H18.962L18.9663 96.7206ZM20.8158 96.7206H19.291V93.3529H20.8158V96.7206Z" fill="#660606"/>
<path opacity="0.1" d="M2.31177 104.329V108.181H20.9065V104.329H2.31177ZM4.16344 107.94H2.63866V104.57H4.16344V107.94ZM6.01511 107.94H4.49033V104.57H6.01511V107.94ZM7.86256 107.94H6.33778V104.57H7.86256V107.94ZM9.71423 107.94H8.18945V104.57H9.71423V107.94ZM11.5638 107.94H10.039V104.57H11.5638V107.94ZM13.4155 107.94H11.8907V104.57H13.4155V107.94ZM15.2671 107.94H13.7423V104.57H15.2671V107.94ZM17.1167 107.94H15.5877V104.57H17.1125L17.1167 107.94ZM18.9663 107.94H17.4415V104.57H18.962L18.9663 107.94ZM20.8158 107.94H19.291V104.57H20.8158V107.94Z" fill="#660606"/>
<path opacity="0.1" d="M2.39185 115.546C2.46566 115.91 2.55002 116.271 2.63859 116.629V115.79H4.16338V119.157H3.35564C3.37884 119.236 3.40415 119.319 3.42946 119.398H20.9128V115.546H2.39185ZM6.01504 119.157H4.49026V115.79H6.01504V119.157ZM7.86249 119.157H6.33772V115.79H7.86249V119.157ZM9.71416 119.157H8.18938V115.79H9.71416V119.157ZM11.5637 119.157H10.0389V115.79H11.5637V119.157ZM13.4154 119.157H11.8906V115.79H13.4154V119.157ZM15.2671 119.157H13.7423V115.79H15.2671V119.157ZM17.1166 119.157H15.5876V115.79H17.1124L17.1166 119.157ZM18.9662 119.157H17.4414V115.79H18.962L18.9662 119.157ZM20.8157 119.157H19.291V115.79H20.8157V119.157Z" fill="#660606"/>
<path opacity="0.1" d="M6.70898 126.766C6.75749 126.842 6.80389 126.926 6.8524 127.007H7.86259V128.625L8.18948 129.109V127.017H9.71426V130.387H9.09633C9.15749 130.466 9.21654 130.55 9.28403 130.628H20.9065V126.766H6.70898ZM11.5596 130.377H10.0348V127.007H11.5596V130.377ZM13.4113 130.377H11.8865V127.007H13.4113V130.377ZM15.2629 130.377H13.7382V127.007H15.2629V130.377ZM17.1125 130.377H15.5877V127.007H17.1125V130.377ZM18.9621 130.377H17.4373V127.007H18.9621V130.377ZM20.8116 130.377H19.2868V127.007H20.8116V130.377Z" fill="#660606"/>
<path opacity="0.1" d="M16.91 137.983C17.0851 138.106 17.2622 138.227 17.4415 138.342V138.224H18.9621V139.291L19.2868 139.476V138.224H20.8116V140.274C20.841 140.291 20.8713 140.305 20.9023 140.316V137.983H16.91Z" fill="#660606"/>
<path opacity="0.1" d="M131.258 149.015H131.448H131.258ZM118.977 113.455C119.013 113.606 119.045 113.758 119.079 113.907C119.049 113.745 119.015 113.593 118.977 113.442V113.455ZM27.6088 43.6289V44.6408H36.1501V43.6289H27.6088ZM131.258 149.015H131.448H131.258ZM118.977 113.455C119.013 113.606 119.045 113.758 119.079 113.907C119.049 113.745 119.015 113.593 118.977 113.442V113.455ZM131.258 149.015H131.448H131.258ZM118.977 113.455C119.013 113.606 119.045 113.758 119.079 113.907C119.049 113.745 119.015 113.593 118.977 113.442V113.455Z" fill="#660606"/>
<path opacity="0.1" d="M173.19 33.6174C175.71 33.6174 177.752 31.0853 177.752 27.9618C177.752 24.8383 175.71 22.3062 173.19 22.3062C170.671 22.3062 168.629 24.8383 168.629 27.9618C168.629 31.0853 170.671 33.6174 173.19 33.6174Z" fill="#660606"/>
<path opacity="0.1" d="M193.439 46.2673C195.42 46.2673 197.026 44.276 197.026 41.8197C197.026 39.3633 195.42 37.3721 193.439 37.3721C191.457 37.3721 189.851 39.3633 189.851 41.8197C189.851 44.276 191.457 46.2673 193.439 46.2673Z" fill="#660606"/>
<path opacity="0.1" d="M203.473 21.9555C204.172 21.9555 204.739 21.2531 204.739 20.3867C204.739 19.5203 204.172 18.8179 203.473 18.8179C202.774 18.8179 202.208 19.5203 202.208 20.3867C202.208 21.2531 202.774 21.9555 203.473 21.9555Z" fill="#660606"/>
<path opacity="0.1" d="M159.031 209.357C169.708 209.357 178.364 206.898 178.364 203.866C178.364 200.833 169.708 198.375 159.031 198.375C148.354 198.375 139.698 200.833 139.698 203.866C139.698 206.898 148.354 209.357 159.031 209.357Z" fill="#660606"/>
<path d="M168.949 196.427C168.949 196.427 155.435 200.927 155.298 200.927C155.222 200.927 152.66 201.189 149.764 201.257C147.322 201.319 144.644 201.257 143.016 200.815C139.477 199.845 144.119 196.655 146.464 195.4C148.809 194.145 160.383 194.945 161.678 194.945C162.973 194.945 165.079 193.065 164.346 188.79C163.612 184.515 164.529 173.915 164.529 173.915L167.517 171.807L167.585 172.976L168.949 196.427Z" fill="#CFE0E6"/>
<path opacity="0.1" d="M168.949 196.427C168.949 196.427 155.435 200.927 155.298 200.927C155.222 200.927 152.66 201.189 149.764 201.256C151.527 200.82 153.891 200.164 154.425 199.688C155.298 198.89 161.642 196.668 161.642 196.668C161.642 196.668 167.846 197.065 166.651 192.508C165.455 187.95 166.229 173.42 166.229 173.42L167.585 172.994L168.949 196.427Z" fill="black"/>
<path d="M166.606 173.402C166.606 173.402 165.824 187.934 167.028 192.489C168.232 197.044 162.017 196.649 162.017 196.649C162.017 196.649 155.673 198.872 154.8 199.669C154.227 200.192 151.538 200.911 149.756 201.345C149.111 201.496 148.512 201.862 148.022 202.403C147.532 202.944 147.171 203.641 146.976 204.417C146.721 205.463 146.824 206.467 148.045 206.569C150.757 206.797 150.757 207.254 150.757 207.254C150.757 207.254 150.205 209.704 153.056 208.562C155.908 207.419 157.285 206.909 157.285 206.909C157.285 206.909 155.309 209.759 156.504 209.987C157.7 210.214 162.112 206.065 162.112 206.065C162.112 206.065 164.961 201.562 170.569 201.277C176.177 200.992 170.063 192.842 170.063 192.842C170.063 192.842 169.373 181.445 169.559 180.077C169.744 178.71 169.329 172.555 169.329 172.555L166.606 173.402Z" fill="#CFE0E6"/>
<path d="M166.1 146.217C166.1 146.217 159.113 146.217 156.722 143.602C154.33 140.988 149.929 135.047 149.929 135.047C149.929 135.047 137.241 116.354 133.563 121.484C133.563 121.484 133.656 123.992 136.965 125.017C140.274 126.042 140.459 129.122 140.459 129.122C140.459 129.122 129.058 127.292 129.518 131.059C129.518 131.059 130.254 133.224 134.58 131.857C138.905 130.489 140.004 132.084 140.004 132.084C140.004 132.084 139.911 134.137 137.705 134.022C135.499 133.907 133.66 135.617 133.477 137.099C133.293 138.582 138.348 137.327 138.348 137.327C138.348 137.327 141.934 136.757 144.139 139.492C146.345 142.227 149.473 140.862 149.473 140.862C149.473 140.862 156.92 150.322 165.744 149.409L166.1 146.217Z" fill="#CFE0E6"/>
<g opacity="0.1">
<path opacity="0.1" d="M139.888 132.029C139.943 131.862 139.977 131.686 139.991 131.506C139.991 131.506 138.888 129.911 134.567 131.279C130.695 132.503 129.704 130.895 129.539 130.547C129.496 130.728 129.486 130.919 129.51 131.106C129.51 131.106 130.246 133.274 134.571 131.907C138.169 130.772 139.534 131.692 139.888 132.029Z" fill="black"/>
<path opacity="0.1" d="M136.956 125.074C139.312 125.804 140.084 127.574 140.331 128.534L140.449 128.552C140.449 128.552 140.265 125.474 136.954 124.447C134.582 123.712 133.863 122.214 133.645 121.427C133.616 121.463 133.582 121.5 133.552 121.542C133.555 121.542 133.647 124.049 136.956 125.074Z" fill="black"/>
<path opacity="0.1" d="M165.731 148.839C156.907 149.752 149.46 140.297 149.46 140.297C149.46 140.297 146.335 141.664 144.127 138.93C141.919 136.195 138.329 136.757 138.329 136.757C138.329 136.757 134.097 137.803 133.519 136.848C133.492 136.949 133.471 137.052 133.458 137.157C133.274 138.639 138.329 137.384 138.329 137.384C138.329 137.384 141.915 136.814 144.121 139.549C146.327 142.284 149.454 140.917 149.454 140.917C149.454 140.917 156.901 150.379 165.725 149.467L166.094 146.274H166.022L165.731 148.839Z" fill="black"/>
</g>
<path d="M174.053 155.603C174.343 158.91 174.172 162.254 173.549 165.49C173.511 165.688 173.473 165.895 173.435 166.107C173.084 168.04 172.844 170.001 172.716 171.977C172.573 174.461 170.377 174.921 168.287 174.785C167.021 174.681 165.765 174.427 164.537 174.027C161.226 160.122 163.709 160.804 164.997 151.229C165.948 144.169 164.392 137.959 163.521 135.204C163.209 134.226 162.983 133.677 162.983 133.677C162.983 133.677 168.315 127.522 167.395 130.144C167.184 130.725 167.222 131.679 167.418 132.874C168.104 137.057 170.826 144.235 172.543 148.494C173.395 150.628 173.836 153.227 174.053 155.603Z" fill="#CFE0E6"/>
<path opacity="0.1" d="M164.902 173.972C161.593 160.067 164.076 160.749 165.362 151.177C166.313 144.117 164.757 137.907 163.886 135.149C163.574 134.171 163.348 133.625 163.348 133.625C163.348 133.625 166.379 130.116 167.477 129.525C167.186 128.766 162.979 133.625 162.979 133.625C162.979 133.625 163.205 134.171 163.517 135.149C164.396 137.907 165.95 144.107 164.993 151.177C163.704 160.749 161.222 160.067 164.533 173.972H164.902Z" fill="black"/>
<path opacity="0.1" d="M167.41 132.877C166.144 133.87 165.229 134.616 165.09 134.819C164.879 135.141 164.217 135.222 163.515 135.206C163.202 134.229 162.977 133.679 162.977 133.679C162.977 133.679 168.308 127.524 167.389 130.147C167.182 130.727 167.222 131.682 167.41 132.877Z" fill="black"/>
<path d="M161.317 134.477C161.317 134.477 164.535 135.162 165.086 134.364C165.636 133.567 177.59 124.69 178.6 124.562C179.61 124.434 181.082 120.344 181.082 120.344C181.082 120.344 191.416 98.441 178.762 87.5743C176.096 85.2948 173.005 83.8975 169.781 83.5149C166.557 83.1324 163.307 83.7773 160.341 85.3884C154.805 88.4005 149.003 95.2563 149.507 110.803C149.587 112.958 150.004 115.073 150.736 117.029C151.23 118.368 151.713 119.879 151.667 120.561C151.574 121.939 161.317 134.477 161.317 134.477Z" fill="#CFE0E6"/>
<path opacity="0.1" d="M168.03 147.017L169.318 163.43C169.318 163.43 166.467 173.46 168.399 178.475C170.331 183.49 170.788 186.91 171.984 186.225C173.18 185.54 170.881 178.472 170.881 178.472C170.881 178.472 175.753 186.11 177.316 185.309C178.878 184.509 177.948 181.434 175.207 178.584C172.465 175.734 175.666 176.419 175.666 176.419C175.666 176.419 182.01 179.497 181.361 176.534C180.711 173.572 174.557 172.197 174.557 172.197C174.557 172.197 172.718 165.017 171.984 163.422C171.25 161.827 170.788 149.287 170.236 148.034C169.683 146.782 168.03 147.017 168.03 147.017Z" fill="black"/>
<path opacity="0.1" d="M173.254 166.107C172.903 168.04 172.662 170.002 172.535 171.977C172.391 174.461 170.194 174.921 168.106 174.785C167.895 169.684 169.679 163.43 169.679 163.43L168.393 147.017C168.393 147.017 170.046 146.787 170.599 148.042C171.151 149.297 171.609 161.832 172.345 163.43C172.695 164.296 172.999 165.191 173.254 166.107Z" fill="black"/>
<path d="M168.213 147.017L169.502 163.43C169.502 163.43 166.651 173.46 168.582 178.475C170.514 183.49 170.972 186.91 172.168 186.225C173.363 185.54 171.065 178.472 171.065 178.472C171.065 178.472 175.936 186.11 177.499 185.309C179.062 184.509 178.132 181.434 175.39 178.584C172.648 175.734 175.85 176.419 175.85 176.419C175.85 176.419 182.192 179.497 181.544 176.534C180.897 173.572 174.741 172.197 174.741 172.197C174.741 172.197 172.904 165.017 172.168 163.422C171.432 161.827 170.972 149.287 170.421 148.034C169.871 146.782 168.213 147.017 168.213 147.017Z" fill="#CFE0E6"/>
<path opacity="0.1" d="M142.06 131.724C141.86 132.309 141.514 132.799 141.073 133.123L142.06 131.724Z" fill="black"/>
<path opacity="0.1" d="M172.36 172.502C172.795 173.706 173.444 174.772 174.258 175.622L172.36 172.502Z" fill="black"/>
<path opacity="0.1" d="M170.2 175.455C170.23 175.937 170.318 176.411 170.461 176.861C170.534 177.086 170.646 177.288 170.79 177.452C170.933 177.617 171.104 177.74 171.29 177.813" fill="black"/>
<path opacity="0.2" d="M167.659 103.074C167.659 103.074 168.888 100.507 169.536 100.507L167.659 103.074Z" fill="black"/>
<path opacity="0.2" d="M167.984 104.518C167.984 104.518 171.799 99.1445 172.705 99.1445L167.984 104.518Z" fill="black"/>
<path opacity="0.2" d="M160.802 98.1821C160.802 98.1821 161.838 98.2632 162.032 99.3849L160.802 98.1821Z" fill="black"/>
<path opacity="0.2" d="M158.925 97.7012C158.925 97.7012 161.256 100.188 161.319 101.228L158.925 97.7012Z" fill="black"/>
<path opacity="0.2" d="M164.877 110.453C164.877 110.453 165.459 111.499 166.106 111.815L164.877 110.453Z" fill="black"/>
<path opacity="0.2" d="M165.324 107.966C165.324 107.966 166.423 110.934 167.07 110.934L165.324 107.966Z" fill="black"/>
<path opacity="0.2" d="M168.177 118.713C168.177 118.713 170.634 123.124 173.61 122.635L168.177 118.713Z" fill="black"/>
<path opacity="0.2" d="M162.871 118.072C162.871 118.072 160.931 120.559 159.185 120.559L162.871 118.072Z" fill="black"/>
<path opacity="0.2" d="M178.543 95.1099C178.543 95.1099 182.599 97.1546 182.468 98.7234L178.543 95.1099Z" fill="black"/>
<path opacity="0.2" d="M180.331 94.2446C180.331 94.2446 182.991 96.7338 183.383 97.9235L180.331 94.2446Z" fill="black"/>
<path opacity="0.2" d="M151.635 97.1544C151.635 97.1544 155.517 96.3987 155.996 96.9373L151.635 97.1544Z" fill="black"/>
<path opacity="0.2" d="M152.202 94.7858C152.202 94.7858 155.473 94.4616 156.127 95.0473L152.202 94.7858Z" fill="black"/>
<path opacity="0.1" d="M162.055 134.707C162.055 134.707 152.31 122.156 152.403 120.799C152.447 120.117 151.966 118.606 151.47 117.267C150.739 115.31 150.322 113.196 150.243 111.041C149.739 95.4943 155.539 88.6385 161.077 85.6264C164.103 83.9834 167.421 83.3454 170.706 83.7752C167.188 83.1434 163.597 83.7448 160.341 85.5113C154.805 88.5261 149.003 95.3792 149.507 110.929C149.586 113.083 150.004 115.197 150.736 117.152C151.23 118.493 151.713 120.002 151.667 120.687C151.574 122.054 161.319 134.592 161.319 134.592C161.319 134.592 161.777 134.689 162.374 134.767C162.178 134.733 162.055 134.707 162.055 134.707Z" fill="black"/>
<path opacity="0.9" d="M139.173 119.118V110.639H140.105V108.103H133.424V110.639H134.354V119.118C132.869 119.817 131.628 121.139 130.848 122.855C130.068 124.571 129.798 126.571 130.084 128.508C130.371 130.446 131.196 132.197 132.416 133.458C133.637 134.719 135.175 135.409 136.764 135.409C138.352 135.409 139.89 134.719 141.111 133.458C142.331 132.197 143.157 130.446 143.443 128.508C143.73 126.571 143.459 124.571 142.679 122.855C141.899 121.139 140.658 119.817 139.173 119.118Z" fill="#B1D3DE"/>
<path opacity="0.1" d="M139.175 110.612H134.356V110.727H139.175V110.612Z" fill="black"/>
<path d="M132.966 126.774C132.966 126.774 137.056 126.685 139.101 125.417C141.147 124.149 142.313 125.281 142.204 126.05C142.094 126.818 141.51 128.314 139.173 128.494C136.836 128.675 132.966 126.774 132.966 126.774Z" fill="#660606"/>
<path opacity="0.1" d="M132.966 126.774C132.966 126.774 137.056 126.685 139.101 125.417C141.147 124.149 142.313 125.281 142.204 126.05C142.094 126.818 141.51 128.314 139.173 128.494C136.836 128.675 132.966 126.774 132.966 126.774Z" fill="black"/>
<path d="M131.216 125.961C131.216 125.961 130.777 133.473 136.509 133.609C142.242 133.745 142.204 126.05 142.204 126.05C142.204 126.05 140.095 128.902 135.084 126.549C135.084 126.549 132.492 125.689 131.216 125.961Z" fill="#660606"/>
<path opacity="0.1" d="M142.182 126.076C142.068 127.807 141.326 133.225 136.509 133.11C131.787 133 131.254 127.88 131.211 126.081C131.184 127.046 131.211 133.483 136.509 133.609C142.241 133.745 142.203 126.05 142.203 126.05L142.182 126.076Z" fill="black"/>
<path opacity="0.3" d="M136.543 123.641C136.954 123.641 137.288 123.228 137.288 122.718C137.288 122.209 136.954 121.795 136.543 121.795C136.132 121.795 135.799 122.209 135.799 122.718C135.799 123.228 136.132 123.641 136.543 123.641Z" fill="#660606"/>
<path opacity="0.3" d="M136.969 119.602C137.223 119.602 137.429 119.347 137.429 119.032C137.429 118.717 137.223 118.462 136.969 118.462C136.715 118.462 136.509 118.717 136.509 119.032C136.509 119.347 136.715 119.602 136.969 119.602Z" fill="#660606"/>
<path opacity="0.3" d="M135.942 116.31C136.196 116.31 136.402 116.055 136.402 115.74C136.402 115.425 136.196 115.17 135.942 115.17C135.688 115.17 135.482 115.425 135.482 115.74C135.482 116.055 135.688 116.31 135.942 116.31Z" fill="#660606"/>
<path opacity="0.2" d="M132.002 123.43C131.964 123.817 131.971 124.303 132.251 124.476C132.002 124.348 132.973 122.609 132.846 122.256C132.544 121.506 132.034 123.069 132.002 123.43Z" fill="#FAFAFA"/>
<path opacity="0.3" d="M135.569 106.41C135.98 106.41 136.313 105.997 136.313 105.487C136.313 104.978 135.98 104.564 135.569 104.564C135.158 104.564 134.824 104.978 134.824 105.487C134.824 105.997 135.158 106.41 135.569 106.41Z" fill="#660606"/>
<path opacity="0.3" d="M137.8 104.593C138.105 104.593 138.353 104.287 138.353 103.908C138.353 103.53 138.105 103.223 137.8 103.223C137.495 103.223 137.247 103.53 137.247 103.908C137.247 104.287 137.495 104.593 137.8 104.593Z" fill="#660606"/>
<path opacity="0.3" d="M136.208 102.418C136.366 102.418 136.495 102.259 136.495 102.063C136.495 101.866 136.366 101.707 136.208 101.707C136.049 101.707 135.921 101.866 135.921 102.063C135.921 102.259 136.049 102.418 136.208 102.418Z" fill="#660606"/>
<path d="M63.9483 140.169C65.9793 141.398 68.4742 141.966 71.0176 142.149C71.0028 142.272 70.986 142.392 70.9691 142.509C70.831 143.497 70.5825 144.457 70.231 145.359H70.3828C66.9473 151.776 69.8028 165.331 69.8028 165.331C69.8028 165.331 70.5494 170.39 71.8274 175.967C72.536 179.055 72.148 180.791 71.665 181.72V181.738C71.6334 181.798 71.6039 181.861 71.5722 181.924V181.832C68.6429 186.112 70.6127 188.285 70.6127 188.285L72.245 190.819L72.1037 195.227L73.1687 195.489L72.9178 191.865L73.9153 193.413L74.1262 197.044C74.1262 197.044 79.0232 197.63 82.2731 198.352C85.523 199.073 85.9997 197.12 84.5614 196.537C83.123 195.954 81.6868 192.385 81.6868 192.385C81.4144 192.266 81.131 192.189 80.8433 192.157C80.8165 192.09 80.7891 192.019 80.761 191.946C79.6854 189.138 78.2239 183.963 78.2239 183.963V183.919C78.07 181.777 77.8253 179.643 77.5533 177.518C77.064 173.695 77.9603 164.308 77.9603 164.308C77.9603 164.308 78.2809 152.892 78.9726 150.296C79.2856 148.977 79.4939 147.623 79.5947 146.254C79.6137 146.055 79.6285 145.859 79.6433 145.671C85.1793 145.723 91.6644 145.537 94.6274 144.523C95.4801 144.236 96.3465 144.017 97.2215 143.867C97.1962 144.055 97.1666 144.253 97.135 144.465C96.8713 146.129 96.5319 147.773 96.1185 149.389C94.8404 154.448 95.3719 162.946 97.1287 169.044C98.413 173.488 98.0503 179.502 97.7614 182.42C97.7508 182.541 97.7382 182.658 97.7255 182.768L97.6918 182.731C97.6884 183.066 97.6294 183.397 97.5183 183.703C97.4073 184.008 97.2467 184.282 97.0464 184.507C96.6001 184.957 96.2565 185.545 96.0498 186.211C95.843 186.877 95.7801 187.598 95.8675 188.303C95.9666 188.988 96.177 189.641 96.4859 190.221C96.7948 190.802 97.1957 191.299 97.6643 191.682V197.389H98.6766V191.739C101.977 190.766 105.917 198.226 105.917 198.226C105.917 198.226 111.562 198.55 115.981 198.42C120.399 198.289 117.419 195.891 117.419 195.891C112.455 196.085 110.217 192.592 110.217 192.592L110.158 193.096L110.118 193.052C108.26 190.892 105.9 185.519 105.9 185.519C105.9 185.519 105.74 182.794 105.155 181.497C104.571 180.2 104.797 166.57 104.797 166.57L104.75 144.361V143.775C105.805 143.877 106.556 143.945 106.824 143.801C107.667 143.349 106.982 136.276 106.237 134.524C105.771 133.431 104 126.126 102.734 120.784C103.065 121.419 103.435 122.022 103.839 122.588C103.038 121.281 98.6766 95.2827 98.6766 95.2827L98.5269 91.8836C99.194 90.7814 99.7598 89.5904 100.214 88.3328C101.935 88.0922 106.225 87.1614 108.572 83.7414C109.116 82.957 109.232 82.3843 109.057 81.9974L122.255 78.6192L124.811 75.9574L116.909 77.7668C118.469 74.1454 116.556 72.8302 114.688 72.3648L115.135 70.6443C115.167 70.5231 115.175 70.3942 115.159 70.2683C115.143 70.1424 115.103 70.0231 115.042 69.9201L115.027 69.8991L114.998 69.8521C114.981 69.829 114.964 69.8072 114.945 69.7867L114.909 69.7475C114.888 69.7268 114.865 69.7076 114.842 69.69L114.806 69.6638C114.768 69.6398 114.73 69.6188 114.69 69.6011C114.519 69.534 114.333 69.5532 114.173 69.6544C114.012 69.7557 113.891 69.9309 113.834 70.1423L113.313 72.1452L113.089 72.1295L103.388 71.6065C103.388 71.6065 101.844 68.7539 101.258 69.5958C100.672 70.4378 99.8197 69.4677 99.8197 69.4677C99.8197 69.4677 99.8197 63.3702 98.5417 63.6291C98.3121 63.6764 98.0769 63.6617 97.8523 63.5858C97.6277 63.51 97.419 63.3749 97.2404 63.1898L97.2109 62.5257C97.2109 62.5257 97 59.4116 96.7891 56.7524C96.5951 54.3233 92.993 51.0863 92.3603 50.5399L88.2584 43.4357C88.2506 43.4491 88.2435 43.463 88.2373 43.4775L88.1002 43.2396L88.1192 43.0906C88.1382 42.9677 88.1529 42.8474 88.1719 42.7245C88.956 43.0301 89.7732 43.1853 90.5951 43.1847C94.9628 43.1847 98.5016 38.8731 98.5016 33.5521C98.5032 32.321 98.3105 31.1015 97.9343 29.9621C97.9195 29.9151 97.9027 29.8706 97.8879 29.8236C98.323 29.9279 98.7733 29.8715 99.1828 29.6614C99.2762 29.61 99.3624 29.5403 99.438 29.4549C100.537 28.1632 97.9807 24.955 97.5188 23.8045C97.1371 22.858 96.9473 21.799 96.4918 20.9048C96.2529 20.4447 95.9568 20.0343 95.6144 19.689C95.6397 19.736 95.6672 19.7831 95.6925 19.8328C95.7178 19.8825 95.7093 19.872 95.7199 19.8903C95.0409 19.172 94.2518 18.6312 93.4 18.3006C90.2661 16.9932 83.644 15.074 81.6679 18.3162C81.2777 18.9542 80.955 19.689 80.4151 20.1465C80.006 20.4891 79.5083 20.6329 79.0591 20.8917C77.7937 21.6134 76.9923 23.1848 76.5599 24.8138C76.1276 26.4427 76.0032 28.1397 75.6889 29.7817C75.2882 31.9022 74.5796 33.913 73.8774 35.9132C73.0464 38.2664 72.1649 40.7164 70.5663 42.3846C68.3835 44.662 67.89 47.8755 65.8738 50.3725C63.4717 53.3376 63.554 58.2166 64.7877 62.1099C64.9501 62.6329 65.1336 63.1558 65.0703 63.6944C65.007 64.2331 64.6759 64.7403 64.3617 65.1613L63.0499 66.9654C64.7197 67.4278 66.4673 67.1503 67.9891 66.181C68.302 65.9882 68.6043 65.7698 68.8939 65.5274L68.8812 65.9797C68.7821 69.9017 68.8411 72.974 68.8411 72.974C70.4925 76.2816 66.1796 102.878 66.1796 102.878C65.1715 107.995 63.9483 140.169 63.9483 140.169ZM98.9719 80.5305C98.8032 80.5175 98.6281 80.507 98.4489 80.4991V80.4364L98.9719 80.5305ZM103.483 81.1816L103.093 81.6653C102.268 81.8326 101.699 81.9843 101.699 81.9843L100.883 82.2118C100.779 81.5503 100.627 81.0665 100.473 80.8809C100.404 80.8127 100.323 80.7645 100.237 80.7397C101.298 80.9044 102.41 81.0508 103.483 81.1816Z" fill="#E8E8E8"/>
<path d="M73.2784 190.884L73.5905 195.472L72.5487 195.214L72.7048 190.238L73.2784 190.884Z" fill="#004257"/>
<path d="M97.0527 169.098C98.3181 173.543 97.9532 179.521 97.6706 182.433C97.5652 183.508 97.4597 184.164 97.4597 184.164C97.4597 184.164 99.3367 189.467 99.4928 189.655C99.6488 189.843 105.02 193.922 105.02 193.922L108.774 196.636C108.774 196.636 112.581 194.568 110.755 193.857C110.382 193.672 110.046 193.387 109.772 193.023C107.952 190.871 105.645 185.516 105.645 185.516C105.645 185.516 105.489 182.802 104.917 181.51C104.345 180.219 104.55 166.641 104.55 166.641L104.506 144.507V141.631L97.3606 141.696C97.315 142.676 97.2121 143.65 97.0527 144.612C96.796 146.27 96.4636 147.908 96.0573 149.519C94.8109 154.553 95.3318 163.022 97.0527 169.098Z" fill="#FABBBB"/>
<path opacity="0.1" d="M97.4703 184.159C97.4703 184.159 99.3473 189.462 99.5034 189.65C99.6594 189.838 105.031 193.917 105.031 193.917L108.785 196.631C108.785 196.631 112.592 194.563 110.765 193.852C110.392 193.666 110.057 193.382 109.782 193.018L109.62 194.432L108.367 194.369L97.6707 182.423C97.5652 183.503 97.4703 184.159 97.4703 184.159Z" fill="black"/>
<path d="M97.6011 182.736L108.357 194.764L109.607 194.829L109.869 192.565C109.869 192.565 112.058 196.056 116.909 195.862C116.909 195.862 119.827 198.255 115.5 198.383C111.172 198.511 105.647 198.189 105.647 198.189C105.647 198.189 101.787 190.756 98.5543 191.726V197.35H97.5631V191.658C97.1019 191.272 96.7083 190.775 96.4061 190.197C96.1038 189.618 95.8991 188.969 95.8042 188.29C95.7186 187.59 95.7797 186.874 95.9817 186.211C96.1838 185.548 96.5199 184.961 96.9579 184.506C97.1569 184.282 97.3166 184.008 97.4273 183.704C97.5379 183.4 97.5971 183.07 97.6011 182.736Z" fill="#004257"/>
<path d="M72.2872 176.014C72.9789 179.089 72.6014 180.822 72.1269 181.753C72.1262 181.759 72.1262 181.765 72.1269 181.771C71.5175 182.919 71.0935 184.202 70.8784 185.55L70.8362 185.84L75.7353 194.696L78.3863 195.99C78.3863 195.99 82.6612 194.181 81.8787 193.663C81.6847 193.535 81.3789 192.866 81.0352 191.935C79.9807 189.134 78.5466 183.968 78.5466 183.968V183.926C78.3968 181.79 78.1564 179.664 77.8886 177.546C77.4098 173.736 78.2893 164.381 78.2893 164.381C78.2893 164.381 78.6014 153.004 79.2805 150.416C79.5854 149.101 79.7888 147.752 79.8879 146.389C80.0313 144.763 80.0629 143.435 80.0629 143.435C80.0629 143.435 77.2475 138.587 72.0847 143.824C71.673 144.244 71.3103 144.732 71.007 145.275C67.4429 151.564 70.3111 165.409 70.3111 165.409C70.3111 165.409 71.0345 170.455 72.2872 176.014Z" fill="#FABBBB"/>
<path opacity="0.1" d="M70.8278 185.84L75.7269 194.696L78.3863 195.991C78.3863 195.991 82.6612 194.181 81.8787 193.663C81.6847 193.535 81.3789 192.866 81.0352 191.935C79.2235 191.914 78.2935 194.053 78.2935 194.053L75.9989 193.601C75.9989 193.601 72.9747 186.23 72.2977 185.78C71.6207 185.33 72.1923 182.415 72.1923 182.415V181.672L72.1374 181.756C72.1367 181.762 72.1367 181.768 72.1374 181.774C71.528 182.922 71.104 184.205 70.8889 185.553L70.8278 185.84Z" fill="black"/>
<path d="M78.1268 194.244C78.1268 194.244 79.4302 191.271 81.923 192.369C81.923 192.369 83.3318 195.925 84.7384 196.506C86.1451 197.086 85.679 199.029 82.4966 198.318C79.3142 197.606 74.5289 197.036 74.5289 197.036L74.318 193.418L71.085 188.311C71.085 188.311 69.1553 186.143 72.0235 181.879V182.621C72.0235 182.621 71.4499 185.529 72.1268 185.984C72.8038 186.439 75.8302 193.805 75.8302 193.805L78.1268 194.244Z" fill="#004257"/>
<path opacity="0.1" d="M97.3649 141.688C97.3194 142.668 97.2165 143.643 97.057 144.604C100.01 144.068 102.726 144.342 104.516 144.507V141.631L97.3649 141.688Z" fill="black"/>
<path opacity="0.1" d="M70.7223 146.084C70.7223 146.084 74.9044 146.345 79.8815 146.387C80.0249 144.761 80.0566 143.432 80.0566 143.432C80.0566 143.432 77.2411 138.585 72.0784 143.822C71.6666 144.241 71.3039 144.73 71.0007 145.273C70.9199 145.549 70.8269 145.82 70.7223 146.084Z" fill="black"/>
<path d="M70.7223 145.503C70.7223 145.503 89.0239 146.601 94.6021 144.664C100.18 142.726 105.708 144.402 106.543 143.95C107.378 143.497 106.699 136.451 105.969 134.707C105.24 132.963 101.224 115.313 101.224 115.313L97.3648 90.3561L93.2987 88.9651L93.0119 88.8657L85.9258 86.4419L80.7335 84.6665C80.7335 84.6665 70.4207 134.641 71.2959 138.325C71.6174 139.737 71.6687 141.223 71.4457 142.663C71.3104 143.646 71.067 144.602 70.7223 145.503Z" fill="#004257"/>
<path d="M110.818 73.2954C110.818 73.2954 114.469 78.1431 111.704 80.8597C108.939 83.5764 107.117 81.1212 107.117 81.1212L110.818 73.2954Z" fill="#CFE0E6"/>
<path opacity="0.1" d="M110.818 73.2954C110.818 73.2954 114.469 78.1431 111.704 80.8597C108.939 83.5764 107.117 81.1212 107.117 81.1212L110.818 73.2954Z" fill="black"/>
<path d="M81.2798 41.3618C81.2798 41.3618 81.7016 41.8639 82.3532 42.6117C83.2728 43.6758 84.633 45.2264 85.8394 46.5337C87.5118 48.3379 88.8889 49.6714 88.3975 48.5314C87.9061 47.3913 87.9968 45.4329 88.2436 43.5896C88.2605 43.4667 88.2752 43.3464 88.2942 43.2235C88.498 41.871 88.7677 40.535 89.1019 39.223C89.1019 39.223 86.4025 34.8957 84.9072 33.1883C84.3504 32.5503 83.9624 32.2783 83.9392 32.7255C83.9118 33.3294 83.5448 34.6551 83.0956 36.088L83.0534 36.2213C82.7476 37.1835 82.4081 38.1876 82.1065 39.0504C81.6446 40.3761 81.2798 41.3618 81.2798 41.3618Z" fill="#FABBBB"/>
<path opacity="0.1" d="M83.0513 36.2319C83.3052 37.9241 83.921 39.5006 84.8343 40.7967C85.7477 42.0929 86.9251 43.0611 88.2435 43.6002C88.4498 42.1223 88.7366 40.6635 89.1019 39.2336C89.1019 39.2336 84.0172 31.0888 83.9391 32.7361C83.9181 33.3558 83.5216 34.7416 83.0513 36.2319Z" fill="black"/>
<path opacity="0.1" d="M88.7498 45.7729L88.0918 44.625C88.0918 44.625 87.6552 47.9221 86.0524 46.4684C84.4496 45.0146 84.3652 57.4083 84.3652 57.4083L86.0861 89.3077L98.529 88.3873L98.1768 72.9606L96.768 65.2053L93.2883 53.9072L91.2151 50.1734L88.7498 45.7729Z" fill="black"/>
<path d="M84.3694 57.6019L85.9258 86.4473L86.0903 89.5039L93.0246 88.9809L93.2987 88.96L98.5269 88.5731L98.1746 73.1463L96.7659 65.3911L93.2861 54.0929L91.213 50.3618L88.7497 45.9481L88.0917 44.8003C88.0917 44.8003 87.6551 48.0974 86.0523 46.6306L86.0186 46.6018C84.4474 45.3834 84.3694 57.6019 84.3694 57.6019Z" fill="#004257"/>
<path d="M96.5845 62.6929C96.5845 62.6929 97.2172 64.3088 98.4615 64.0499C99.7058 63.791 99.7121 69.8702 99.7121 69.8702C99.7121 69.8702 100.556 70.8377 101.121 69.9984C101.686 69.159 103.207 72.0012 103.207 72.0012L112.697 72.5241C112.697 72.5241 108.479 74.9166 109.308 82.1567C109.308 82.1567 94.967 81.0585 94.5009 79.3773C94.0348 77.696 96.5845 62.6929 96.5845 62.6929Z" fill="#FAFAFA"/>
<path opacity="0.03" d="M96.5845 62.6929C96.5845 62.6929 97.2172 64.3088 98.4615 64.0499C99.7058 63.791 99.7121 69.8702 99.7121 69.8702C99.7121 69.8702 100.556 70.8377 101.121 69.9984C101.686 69.159 103.207 72.0012 103.207 72.0012L112.697 72.5241C112.697 72.5241 108.479 74.9166 109.308 82.1567C109.308 82.1567 94.967 81.0585 94.5009 79.3773C94.0348 77.696 96.5845 62.6929 96.5845 62.6929Z" fill="black"/>
<path d="M124.168 76.3335L121.664 78.9848L101.068 84.3502L103.624 81.1184L124.168 76.3335Z" fill="#FAFAFA"/>
<path d="M88.7096 46.79C89.0512 47.4254 90.0298 50.7539 90.848 53.6484C91.5292 56.0617 92.1008 58.1692 92.1008 58.1692C92.1008 58.1692 93.4294 68.8895 94.1064 70.8374C94.7834 72.7854 94.4206 80.3419 94.4206 80.3419L96.9514 99.024C96.9514 99.024 98.0966 108.659 99.8681 114.411C101.614 120.075 103.559 122.731 103.62 122.813C102.838 121.505 98.5584 95.6013 98.5584 95.6013L97.1517 62.9541C97.1517 62.9541 96.9408 59.8504 96.7299 57.2017C96.5191 54.5531 92.3011 50.9265 92.3011 50.9265L88.2224 43.7334C87.8111 44.442 88.0853 45.6264 88.7096 46.79Z" fill="#FAFAFA"/>
<path d="M99.3473 88.7455C99.3473 88.7455 105.343 88.4213 108.264 84.0913C111.185 79.7614 101.536 82.3447 101.536 82.3447L99.0352 83.0559L99.3473 88.7455Z" fill="#FABBBB"/>
<path opacity="0.1" d="M71.296 138.326C71.6175 139.738 71.6688 141.223 71.4457 142.664C77.9983 143.241 85.0085 141.042 85.0085 141.042C86.3118 142.53 89.7536 144.727 89.7536 144.727L91.6306 115.894C92.8285 112.017 93.2988 91.6533 93.2988 91.6533C93.2988 91.6533 93.1912 90.5865 93.0246 88.9915C93.0246 88.9523 93.0246 88.9104 93.012 88.8712C92.5438 84.4132 91.618 76.0409 91.1624 74.9113C90.5297 73.3608 93.09 69.2243 93.09 69.2243L91.928 56.9352L91.7867 55.4553C89.3361 54.0956 87.4591 49.7631 87.4591 49.7631L86.0187 46.6254C84.4496 45.3782 84.3716 57.6072 84.3716 57.6072L85.928 86.4526L80.7357 84.6772C80.7357 84.6772 70.4208 134.642 71.296 138.326Z" fill="black"/>
<path d="M64.5704 140.331C71.7114 144.727 84.6963 140.656 84.6963 140.656C85.9996 142.141 89.4414 144.34 89.4414 144.34L91.3184 115.507C92.5163 111.63 92.9866 91.2665 92.9866 91.2665C92.9866 91.2665 91.4745 76.075 90.8481 74.5324C90.6667 74.08 90.7553 73.4054 90.9704 72.6812C92.0364 69.2284 92.4288 65.512 92.1156 61.8354L91.6158 56.5484L91.4745 55.0659C89.0239 53.7089 87.1469 49.3763 87.1469 49.3763L85.8393 46.5393L83.4351 41.3099L82.2963 38.8364L82.1043 39.0534L80.6281 40.7138C80.6281 40.7138 79.9954 41.3518 79.0632 42.3375C77.0175 44.4763 73.4829 48.2363 71.6608 50.5372C70.058 52.5662 69.5518 60.4496 69.4042 66.385C69.3072 70.2965 69.3662 73.361 69.3662 73.361C70.9838 76.6581 66.7595 103.169 66.7595 103.169C65.7683 108.267 64.5704 140.331 64.5704 140.331Z" fill="#FAFAFA"/>
<path opacity="0.03" d="M78.283 49.3055C78.283 49.3055 83.1842 60.8756 82.6106 65.2709C82.0369 69.6662 80.4193 74.6446 81.2018 75.8081C81.4692 76.25 81.8155 76.6091 82.2136 76.8573C82.6117 77.1054 83.0507 77.2358 83.4963 77.2384C84.2787 77.3037 86.3645 79.1131 86.3645 79.3066C86.3645 79.5001 88.2942 79.5001 90.0151 80.4048C91.736 81.3095 94.29 81.8272 94.29 81.8272C94.29 81.8272 99.2439 81.6337 99.7121 82.2168C100.18 82.7999 100.651 86.2879 99.6594 89.0673C98.6682 91.8467 97.5736 93.9176 96.7406 94.2967C95.9076 94.6758 90.6394 92.4873 86.3645 91.9696C82.0896 91.4519 77.4478 87.2501 77.4478 87.2501C77.4478 87.2501 72.3378 84.9884 71.452 81.1735C70.5663 77.3587 72.5466 56.4149 72.5466 56.4149C72.5466 56.4149 74.0587 46.662 78.283 49.3055Z" fill="black"/>
<path opacity="0.03" d="M78.9072 48.3435C78.9072 48.3435 83.8085 59.9136 83.2369 64.3089C82.6654 68.7042 81.0457 73.6826 81.8281 74.8462C82.0968 75.2877 82.4445 75.6459 82.8437 75.8927C83.2429 76.1395 83.6829 76.2682 84.129 76.2686C84.9114 76.3339 86.9972 78.1433 86.9972 78.3368C86.9972 78.5303 88.9248 78.5303 90.6457 79.4376C92.3666 80.3449 94.9227 80.86 94.9227 80.86C94.9227 80.86 99.8745 80.6639 100.345 81.247C100.815 81.83 101.283 85.318 100.292 88.1001C99.3009 90.8821 98.2063 92.9478 97.3733 93.3295C96.5403 93.7112 91.2721 91.5201 86.9972 91.0024C82.7223 90.4847 78.0805 86.2829 78.0805 86.2829C78.0805 86.2829 72.9705 84.0212 72.0847 80.2063C71.199 76.3914 73.1793 55.4477 73.1793 55.4477C73.1793 55.4477 74.6851 45.6922 78.9072 48.3435Z" fill="black"/>
<path d="M78.4349 48.7304C78.4349 48.7304 83.3361 60.3031 82.7624 64.6984C82.1888 69.0937 80.5733 74.0721 81.3537 75.2357C81.6217 75.6761 81.9683 76.0337 82.3664 76.2805C82.7645 76.5272 83.2032 76.6564 83.6482 76.6581C84.4306 76.7208 86.5164 78.5302 86.5164 78.7263C86.5164 78.9224 88.4461 78.9198 90.167 79.8245C91.8879 80.7292 94.4419 81.2469 94.4419 81.2469C94.4419 81.2469 99.3958 81.0534 99.864 81.6338C100.332 82.2143 100.803 85.7076 99.8134 88.487C98.8243 91.2664 97.7277 93.3346 96.8925 93.7164C96.0574 94.0981 90.7913 91.907 86.5164 91.3893C82.2415 90.8716 77.5997 86.6828 77.5997 86.6828C77.5997 86.6828 72.4918 84.4185 71.6039 80.6063C70.7161 76.794 72.7027 55.8424 72.7027 55.8424C72.7027 55.8424 74.2169 46.0791 78.4349 48.7304Z" fill="#FAFAFA"/>
<path opacity="0.1" d="M78.5424 79.759C78.5424 79.759 82.4545 78.7889 81.0985 80.4048C79.7424 82.0207 79.7424 83.4431 78.0742 83.3803C76.4061 83.3176 78.5424 79.759 78.5424 79.759Z" fill="black"/>
<path opacity="0.1" d="M71.9223 114.603C71.9223 114.603 73.6938 116.09 70.3047 119.516C66.9156 122.941 71.9223 114.603 71.9223 114.603Z" fill="black"/>
<path opacity="0.1" d="M75.3114 126.821C75.3114 127.014 75.9441 133.93 73.5905 135.677C71.2368 137.423 75.3114 126.821 75.3114 126.821Z" fill="black"/>
<path d="M112.539 72.5137C114.437 72.5921 118.516 73.2981 116.396 78.2085C114.523 82.5437 111.377 79.6466 109.614 77.4476C110.045 75.4001 111.091 73.6347 112.539 72.5137Z" fill="#FABBBB"/>
<path d="M109.582 77.4084L109.504 77.3091L109.582 77.4084Z" fill="#FABBBB"/>
<path opacity="0.1" d="M79.0675 42.5333C81.0731 44.2329 82.7561 45.671 83.0745 45.9664C83.9751 46.7901 85.696 51.6403 86.7905 54.1112C87.6721 56.1036 90.5318 56.6161 91.6116 56.7416L91.4703 55.2591C89.0239 53.902 87.1469 49.5669 87.1469 49.5669L82.2963 39.0322L80.6281 40.907C80.6281 40.907 80.0018 41.5502 79.0675 42.5333Z" fill="black"/>
<path d="M79.0675 42.34C81.0731 44.0395 82.7561 45.4776 83.0745 45.7731C83.9751 46.5967 85.696 51.4444 86.7905 53.9179C87.6721 55.9103 90.5318 56.4228 91.6116 56.5483L91.4703 55.0657C89.0197 53.7087 87.1427 49.3761 87.1427 49.3761L82.2921 38.8389L80.6239 40.7162C80.6239 40.7162 80.0018 41.3542 79.0675 42.34Z" fill="#77B4C7"/>
<path d="M82.9227 34.0879C82.9223 35.987 83.3761 37.8435 84.2268 39.4228C85.0774 41.002 86.2868 42.2331 87.7018 42.9601C89.1168 43.6872 90.6739 43.8778 92.1763 43.5076C93.6786 43.1374 95.0587 42.2232 96.142 40.8805C97.2252 39.5379 97.963 37.8271 98.2619 35.9646C98.5609 34.1021 98.4077 32.1715 97.8216 30.4169C97.2355 28.6624 96.243 27.1627 94.9694 26.1076C93.6958 25.0525 92.1985 24.4893 90.6668 24.4893C89.6487 24.4838 88.6399 24.7283 87.6985 25.2087C86.757 25.6891 85.9016 26.3958 85.1817 27.2882C84.4617 28.1806 83.8914 29.2409 83.5037 30.408C83.116 31.575 82.9185 32.8258 82.9227 34.0879Z" fill="#FABBBB"/>
<path opacity="0.1" d="M69.4042 66.3873C70.463 65.5783 71.3247 64.4278 71.897 63.0588C72.3335 61.9893 72.6225 60.7578 73.3732 59.9969C74.0418 59.3197 74.9465 59.155 75.7754 58.8491C78.517 57.8424 80.8242 54.7335 80.9128 51.1828C80.9529 49.5146 80.5332 47.8464 80.723 46.1939C80.8318 45.2566 81.1332 44.3697 81.5982 43.6184C81.8274 43.2588 82.0792 42.9222 82.3511 42.6118C82.7181 42.183 83.0998 41.7698 83.433 41.3044C83.6449 41.0238 83.8302 40.7141 83.9855 40.3814C84.1091 40.1083 84.2095 39.82 84.285 39.5212C84.7954 37.5419 84.3314 35.1912 84.9051 33.1858L84.9367 33.0759C85.1476 32.3647 85.5947 31.6535 86.2021 31.596C86.8094 31.5385 87.343 32.1713 87.9293 32.4563C89.1525 33.0446 90.4748 32.0431 91.4956 31.0182C92.5163 29.9932 93.6699 28.8244 94.9669 29.0545C95.8253 29.2062 96.5044 29.9305 97.2868 30.307C97.4665 30.3905 97.6512 30.456 97.8393 30.5031C97.1197 28.2669 95.7486 26.4475 93.998 25.4056C92.2473 24.3637 90.2448 24.1752 88.3874 24.8776C86.53 25.58 84.9531 27.1219 83.9695 29.1978C82.9858 31.2737 82.6672 33.732 83.0766 36.0855L83.0344 36.2188C82.7286 37.181 82.3891 38.1851 82.0875 39.0479L80.6112 40.7083C80.6112 40.7083 79.9785 41.3463 79.0464 42.332C77.0007 44.4708 73.466 48.2308 71.6439 50.5317C70.058 52.5686 69.5518 60.4519 69.4042 66.3873Z" fill="black"/>
<path d="M97.3943 24.4081C97.021 23.4642 96.8354 22.4105 96.3883 21.5162C95.7324 20.2089 94.5873 19.3905 93.4147 18.9015C90.3461 17.5942 83.8611 15.6854 81.925 18.9172C81.5433 19.5552 81.2291 20.2847 80.6997 20.7318C80.299 21.0744 79.8119 21.2182 79.3711 21.4744C78.1352 22.1934 77.3465 23.7597 76.9247 25.3703C76.5029 26.981 76.3806 28.6831 76.0811 30.3383C75.6867 32.4509 74.995 34.4564 74.3054 36.4488C73.4934 38.8021 72.6308 41.2363 71.0639 42.8993C68.9254 45.1689 68.4446 48.3745 66.4685 50.8585C64.117 53.8157 64.1929 58.6869 65.414 62.554C65.5721 63.0639 65.7535 63.5999 65.6902 64.1229C65.627 64.6458 65.3043 65.1687 64.9964 65.5845L63.712 67.3834C66.7511 68.2933 70.1929 66.3244 71.6059 62.8678C72.0445 61.801 72.3314 60.5695 73.0822 59.8086C73.7507 59.1288 74.6533 58.9667 75.4843 58.6607C78.2259 57.6541 80.5331 54.5426 80.6196 50.9944C80.6618 49.3262 80.2421 47.6581 80.4319 46.0056C80.5409 45.0688 80.8415 44.1821 81.305 43.4301C82.0242 42.2691 83.1103 41.4743 83.6924 40.2009C84.6836 38.0359 83.9307 35.233 84.6456 32.8954C84.8565 32.1842 85.3036 31.4704 85.911 31.4155C86.5184 31.3606 87.0519 31.9934 87.6361 32.2757C88.8593 32.8641 90.1837 31.8626 91.2024 30.8377C92.221 29.8127 93.3767 28.6439 94.6758 28.874C95.5342 29.0257 96.2133 29.7499 96.9957 30.1265C97.582 30.4062 98.7693 30.6494 99.2818 30.0428C100.349 28.7511 97.8372 25.5533 97.3943 24.4081Z" fill="#660606"/>
<path opacity="0.1" d="M70.8593 61.7645C71.2959 60.6951 71.5848 59.4662 72.3356 58.7053C73.0042 58.0255 73.9068 57.8634 74.7377 57.5575C77.4794 56.5508 79.7866 53.4393 79.8731 49.8912C79.9152 48.223 79.4934 46.5522 79.6854 44.9023C79.793 43.965 80.0937 43.078 80.5585 42.3268C81.2776 41.1633 82.3637 40.371 82.9458 39.0951C83.937 36.9327 83.1841 34.1271 83.897 31.7922C84.1079 31.0784 84.5571 30.3672 85.1623 30.3123C85.7676 30.2574 86.3033 30.8875 86.8875 31.1699C88.1107 31.7608 89.433 30.7594 90.4537 29.7344C91.4745 28.7095 92.6281 27.5407 93.9272 27.7682C94.7855 27.9198 95.4646 28.6441 96.2471 29.0232C96.8333 29.3004 98.0186 29.5462 98.5332 28.9395C99.6087 27.6531 97.1054 24.4553 96.6541 23.3101C96.2808 22.3636 96.0952 21.3098 95.6481 20.4182C95.6228 20.3685 95.5954 20.3215 95.5701 20.2744C95.9066 20.6191 96.197 21.0277 96.4305 21.485C96.8755 22.3766 97.0632 23.4304 97.4344 24.3769C97.8878 25.5221 100.387 28.7199 99.3135 30.0063C98.801 30.6182 97.6263 30.3672 97.0295 30.0874C96.2386 29.7109 95.5532 28.9866 94.7096 28.835C93.4105 28.6075 92.2548 29.7763 91.2362 30.8012C90.2175 31.8262 88.8931 32.8276 87.6699 32.2367C87.0836 31.9543 86.5711 31.3215 85.9448 31.3764C85.3184 31.4314 84.8903 32.1452 84.6794 32.859C83.9666 35.1835 84.7173 37.9995 83.7282 40.1619C83.1441 41.4378 82.0601 42.2301 81.3409 43.3936C80.8764 44.1452 80.575 45.032 80.4657 45.9691C80.2759 47.619 80.6977 49.2898 80.6555 50.958C80.5669 54.5061 78.266 57.6176 75.5202 58.6243C74.6892 58.9276 73.7866 59.0923 73.1181 59.7721C72.3694 60.533 72.0804 61.7619 71.6418 62.8314C70.2267 66.288 66.7912 68.2542 63.7479 67.3443L64.3532 66.4972C66.9915 66.5625 69.6572 64.7009 70.8593 61.7645Z" fill="black"/>
<path opacity="0.1" d="M88.8677 46.9864C89.2073 47.6192 90.1879 50.9503 91.0062 53.8422C91.7697 53.4761 92.4656 51.1229 92.4656 51.1229L88.3848 43.9272C87.9672 44.6384 88.2414 45.8229 88.8677 46.9864Z" fill="black"/>
<path d="M88.7097 46.79C89.0514 47.4254 90.0299 50.7539 90.8482 53.6484C91.6138 53.2823 92.3076 50.9264 92.3076 50.9264L88.2289 43.7334C87.8113 44.442 88.0854 45.6264 88.7097 46.79Z" fill="#77B4C7"/>
<path d="M112.429 79.8711L114.692 71.0386C114.719 70.9346 114.729 70.825 114.722 70.7161C114.715 70.6072 114.69 70.5012 114.65 70.4041C114.609 70.3069 114.554 70.2206 114.487 70.15C114.419 70.0794 114.342 70.026 114.258 69.9927C114.174 69.9587 114.085 69.9456 113.997 69.9543C113.909 69.963 113.823 69.9932 113.745 70.0434C113.666 70.0935 113.597 70.1624 113.54 70.2462C113.483 70.33 113.44 70.4269 113.414 70.5314L111.16 79.3743L111.385 81.2229L112.429 79.8711Z" fill="#E75C5C"/>
<path opacity="0.1" d="M114.479 70.2519C114.395 70.2177 114.307 70.2045 114.219 70.2131C114.131 70.2216 114.045 70.2516 113.967 70.3015C113.889 70.3514 113.819 70.42 113.762 70.5035C113.705 70.587 113.662 70.6837 113.635 70.7879L111.373 79.6204L111.543 81.0088L111.379 81.2206L111.16 79.3746L113.42 70.5421C113.447 70.4376 113.49 70.3407 113.546 70.2569C113.603 70.1732 113.673 70.1042 113.751 70.0541C113.83 70.004 113.916 69.9737 114.004 69.965C114.092 69.9563 114.18 69.9694 114.264 70.0035C114.404 70.0587 114.526 70.1699 114.61 70.3199C114.569 70.2908 114.525 70.268 114.479 70.2519Z" fill="#FAFAFA"/>
<path d="M112.431 79.8715L111.16 79.3721L111.345 80.8886L111.385 81.2207L111.756 80.7422L112.431 79.8715Z" fill="#E75C5C"/>
<path d="M111.756 80.7396C111.733 80.706 111.705 80.6777 111.674 80.6559C111.656 80.6418 111.635 80.6343 111.613 80.6343C111.591 80.6343 111.57 80.6418 111.552 80.6559C111.535 80.6826 111.52 80.7116 111.508 80.7422C111.491 80.7788 111.467 80.8101 111.439 80.8336C111.411 80.8572 111.379 80.8724 111.345 80.8781L111.385 81.2102L111.756 80.7396Z" fill="#007194"/>
<path d="M114.709 74.1685C114.709 74.1685 110.173 74.1345 111.242 76.5217C112.311 78.9089 113.983 79.2044 113.983 79.2044L114.709 74.1685Z" fill="#FABBBB"/>
<path d="M19.715 165.505C19.715 165.505 21.2187 167.945 19.0211 171.626C16.8236 175.308 15.0141 178.425 15.7396 180.715C15.7396 180.715 19.0591 173.875 21.7585 173.781C24.458 173.687 22.6865 169.618 19.715 165.505Z" fill="#660606"/>
<path opacity="0.1" d="M19.715 165.505C19.8464 165.74 19.9501 165.998 20.0229 166.269C22.657 170.107 24.0615 173.689 21.5287 173.781C19.1687 173.865 16.3385 179.094 15.6594 180.414C15.6826 180.516 15.71 180.618 15.7396 180.715C15.7396 180.715 19.0591 173.875 21.7585 173.781C24.458 173.687 22.6865 169.618 19.715 165.505Z" fill="black"/>
<path d="M22.5114 168.614C22.5114 169.472 22.4334 170.167 22.3385 170.167C22.2436 170.167 22.1655 169.472 22.1655 168.614C22.1655 167.757 22.2625 168.159 22.3574 168.159C22.4523 168.159 22.5114 167.751 22.5114 168.614Z" fill="#990909"/>
<path d="M23.4709 169.64C22.8635 170.05 22.3342 170.298 22.2878 170.194C22.2414 170.089 22.6969 169.671 23.3064 169.26C23.9159 168.85 23.6734 169.148 23.7282 169.26C23.7831 169.373 24.0804 169.229 23.4709 169.64Z" fill="#990909"/>
<path d="M11.7663 165.505C11.7663 165.505 10.2626 167.945 12.4601 171.626C14.6577 175.308 16.4671 178.425 15.7396 180.715C15.7396 180.715 12.4222 173.875 9.72058 173.781C7.01899 173.687 8.79474 169.618 11.7663 165.505Z" fill="#660606"/>
<path opacity="0.1" d="M11.7662 165.505C11.6348 165.74 11.5311 165.998 11.4583 166.269C8.82423 170.107 7.41966 173.689 9.95252 173.781C12.3125 173.865 15.1427 179.094 15.8218 180.414C15.7988 180.516 15.7713 180.617 15.7395 180.715C15.7395 180.715 12.4242 173.875 9.72054 173.781C7.01685 173.687 8.7947 169.618 11.7662 165.505Z" fill="black"/>
<path d="M8.96973 168.614C8.96973 169.472 9.04776 170.167 9.14266 170.167C9.23757 170.167 9.3156 169.472 9.3156 168.614C9.3156 167.757 9.21859 168.159 9.12368 168.159C9.02878 168.159 8.96973 167.751 8.96973 168.614Z" fill="#990909"/>
<path d="M8.01019 169.64C8.61758 170.05 9.14692 170.298 9.19332 170.194C9.23972 170.089 8.78418 169.671 8.17469 169.26C7.5652 168.85 7.80773 169.148 7.7529 169.26C7.69807 169.373 7.4007 169.229 8.01019 169.64Z" fill="#990909"/>
<path opacity="0.1" d="M15.7417 199.382C24.4307 199.382 31.4745 198.041 31.4745 196.388C31.4745 194.734 24.4307 193.394 15.7417 193.394C7.05263 193.394 0.00878906 194.734 0.00878906 196.388C0.00878906 198.041 7.05263 199.382 15.7417 199.382Z" fill="#660606"/>
<path d="M23.838 177.426L23.7621 178.187L23.6566 179.264L23.6123 179.711L23.5069 180.789L23.4626 181.238L23.3572 182.313L22.1529 194.55C22.0454 195.643 20.605 196.493 18.8693 196.493H12.612C10.8742 196.493 9.44854 195.643 9.33044 194.55L8.12411 182.313L8.01866 181.238L7.97437 180.789L7.86682 179.711L7.82464 179.264L7.71919 178.187L7.64327 177.426C7.58211 176.806 8.36031 176.286 9.3452 176.286H22.1382C23.1188 176.289 23.8992 176.809 23.838 177.426Z" fill="#005F7D"/>
<path d="M23.7641 178.192L23.6587 179.267H7.82456L7.71912 178.192H23.7641Z" fill="#CFE0E6"/>
<path d="M23.6144 179.716L23.509 180.794H7.97645L7.8689 179.716H23.6144Z" fill="#CFE0E6"/>
<path d="M23.4626 181.241L23.3572 182.315H8.12412L8.01868 181.241H23.4626Z" fill="#CFE0E6"/>
</g>
<defs>
<clipPath id="clip0">
<rect width="210" height="210" fill="white" transform="translate(0.00878906)"/>
</clipPath>
</defs>
</svg>
