<svg width="211" height="210" viewBox="0 0 211 210" fill="none" xmlns="http://www.w3.org/2000/svg">
<g clip-path="url(#clip0)">
<path d="M199.015 195.684C199.015 203.59 154.465 210 99.5097 210C44.5539 210 0.00439453 203.59 0.00439453 195.684C0.00439453 190.087 22.3353 185.238 54.88 182.886C68.3003 181.913 83.4637 181.368 99.5097 181.368C106.106 181.368 112.551 181.461 118.785 181.636C164.516 182.929 199.015 188.726 199.015 195.684Z" fill="#004257"/>
<path opacity="0.1" d="M86.6703 198.609C107.766 198.609 124.868 196.61 124.868 194.145C124.868 191.679 107.766 189.681 86.6703 189.681C65.5746 189.681 48.4731 191.679 48.4731 194.145C48.4731 196.61 65.5746 198.609 86.6703 198.609Z" fill="black"/>
<path d="M86.5098 197.377C106.453 197.377 122.621 180.837 122.621 160.433C122.621 140.03 106.453 123.489 86.5098 123.489C66.5664 123.489 50.399 140.03 50.399 160.433C50.399 180.837 66.5664 197.377 86.5098 197.377Z" fill="#004257"/>
<path d="M97.9047 182.292H75.4358V201.995H97.9047V182.292Z" fill="#28A1C7"/>
<path d="M127.275 187.064L125.991 193.837L134.337 195.068L139.793 191.99L139.472 187.064H127.275Z" fill="#004257"/>
<path d="M85.2258 59.915C85.2258 59.915 84.5838 66.996 82.9789 67.3038C81.374 67.6117 86.5097 79.9264 86.5097 79.9264H94.2133L100.312 78.387L97.4232 71.614C97.4232 71.614 93.5714 66.6881 96.4602 62.6858C99.3491 58.6836 85.2258 59.915 85.2258 59.915Z" fill="#FABBBB"/>
<path opacity="0.1" d="M85.2258 59.915C85.2258 59.915 84.5838 66.996 82.9789 67.3038C81.374 67.6117 86.5097 79.9264 86.5097 79.9264H94.2133L100.312 78.387L97.4232 71.614C97.4232 71.614 93.5714 66.6881 96.4602 62.6858C99.3491 58.6836 85.2258 59.915 85.2258 59.915Z" fill="black"/>
<path d="M69.1766 114.1C69.1766 114.1 60.831 129.493 67.5716 132.572C74.3123 135.65 75.9172 135.342 75.9172 136.266C75.9172 137.19 74.6333 136.882 75.2753 138.421C75.9172 139.96 73.9913 146.118 75.9172 149.812C77.8431 153.507 77.2012 156.277 77.2012 156.277C77.2012 156.277 77.2012 156.585 77.8431 157.817C78.4851 159.048 78.8061 159.972 78.4851 160.588C78.1641 161.203 76.2382 165.206 78.1641 166.129C80.09 167.053 90.0406 167.668 91.0035 166.129C91.9665 164.59 90.0406 163.666 91.0035 162.743C91.9665 161.819 92.6084 161.511 91.9665 160.895C91.3245 160.28 90.6825 152.583 90.6825 152.583C90.6825 152.583 92.2875 143.655 91.6455 142.423C91.0035 141.192 90.0406 139.96 90.6825 139.037C91.3245 138.113 91.9665 138.421 92.2875 137.19C92.6084 135.958 93.2504 133.187 93.2504 133.187L96.7812 132.88L105.127 134.419C105.127 134.419 114.435 144.271 124.707 147.349C124.707 147.349 127.596 150.12 128.559 150.12C129.522 150.12 129.522 150.12 129.201 150.736C128.88 151.352 127.917 151.352 128.559 151.967C129.201 152.583 130.164 151.659 129.522 152.583C128.88 153.507 128.238 153.507 128.88 154.122C129.522 154.738 128.559 158.125 128.559 158.432C128.559 158.74 125.67 187.68 126.633 188.296C127.596 188.911 141.077 190.758 142.04 188.296C143.003 185.833 141.398 182.754 141.398 182.754C141.398 182.754 146.213 145.81 144.929 143.347C143.645 140.884 139.151 129.801 115.077 122.72C115.077 122.72 108.337 121.488 108.337 120.565C108.337 119.641 107.695 113.792 106.411 113.484C105.127 113.176 97.7442 112.868 97.7442 112.868L88.4356 115.639L75.5963 113.484L69.1766 114.1Z" fill="#333333"/>
<path d="M80.411 165.821L78.806 171.363C78.806 171.363 77.5221 180.291 79.127 182.446C80.3877 184.139 82.6385 186.211 86.8128 186.575C87.9827 186.678 89.1542 186.395 90.1335 185.772C91.1128 185.15 91.8413 184.226 92.1985 183.152C92.2464 183.024 92.2763 182.89 92.2874 182.754C92.2874 182.138 91.3245 174.749 91.3245 174.749L89.7195 167.053L89.3986 164.897L80.411 165.821Z" fill="#333333"/>
<path d="M127.275 192.297C127.275 192.297 125.67 190.758 125.349 192.297C125.028 193.837 123.744 200.302 125.991 200.61C128.238 200.918 149.744 203.996 151.991 202.765C154.238 201.533 158.41 199.686 155.842 198.763C153.275 197.839 145.892 195.068 145.892 195.068C145.892 195.068 141.719 189.835 141.077 189.527C140.435 189.219 136.904 189.835 135.299 191.066C133.695 192.297 127.275 192.297 127.275 192.297Z" fill="#333333"/>
<path d="M92.9295 66.3802C98.4251 66.3802 102.88 62.1073 102.88 56.8363C102.88 51.5654 98.4251 47.2925 92.9295 47.2925C87.434 47.2925 82.979 51.5654 82.979 56.8363C82.979 62.1073 87.434 66.3802 92.9295 66.3802Z" fill="#FABBBB"/>
<path d="M91.9666 78.3871L88.1148 74.3848L83.8452 66.3803C83.8452 66.3803 80.7321 65.4567 80.0902 66.996C79.4482 68.5353 67.8928 73.4612 67.8928 73.4612C67.8928 73.4612 70.7816 99.322 69.4977 101.785C68.2137 104.248 65.9668 114.1 67.8928 115.023C69.8187 115.947 78.8062 115.023 81.6951 116.255C84.584 117.486 92.9296 117.486 95.1765 115.947C97.4233 114.407 98.0653 113.176 100.312 114.1C102.225 114.886 106.697 88.0045 107.984 79.9938C108.093 79.321 108.003 78.6325 107.724 78.0063C107.446 77.38 106.99 76.841 106.409 76.4504C103.529 74.5127 98.3416 71.1736 97.4233 71.614C96.1394 72.2297 91.9666 78.3871 91.9666 78.3871Z" fill="#004257"/>
<path d="M105.769 77.1558C106.523 77.3365 107.201 77.7341 107.712 78.2952C108.223 78.8563 108.543 79.5541 108.629 80.2947L111.226 102.709C111.226 102.709 104.806 115.947 101.596 107.019C98.3862 98.0907 105.769 77.1558 105.769 77.1558Z" fill="#004257"/>
<path d="M105.127 104.863L112.189 103.016C112.189 103.016 113.473 111.636 114.756 111.636C116.04 111.636 110.263 116.562 107.374 115.947C104.485 115.331 100.312 113.176 99.9912 111.636C99.6702 110.097 102.88 103.632 102.88 103.632L105.127 104.863Z" fill="#004257"/>
<path d="M85.4178 60.9535C86.0944 59.5225 85.977 57.8533 86.5363 56.3765C86.8359 55.5858 87.322 54.8721 87.9566 54.2914C88.5913 53.7106 89.3574 53.2784 90.195 53.0286C91.0326 52.7788 91.9191 52.7181 92.7853 52.8513C93.6514 52.9845 94.4737 53.308 95.1879 53.7964C95.9075 54.2885 96.6289 54.9799 97.5072 54.8859C98.4531 54.7848 99.2967 53.7727 100.166 54.1436C101.13 54.5547 100.87 56.2115 101.846 56.5942C102.36 56.7956 102.968 56.4854 103.264 56.0352C103.523 55.562 103.665 55.0376 103.677 54.5032C103.812 53.1901 103.933 51.8004 103.34 50.6102C103.09 50.2068 102.872 49.7859 102.689 49.3511C102.585 48.945 102.543 48.5266 102.565 48.109C102.559 46.5656 102.442 44.9558 101.632 43.6221C100.734 42.1421 99.0725 41.1958 97.3395 40.7829C95.6066 40.3699 93.7911 40.4332 92.0118 40.5777C89.0706 40.8165 86.0032 41.3285 83.6859 43.0822C83.3709 43.3029 83.0999 43.5761 82.8856 43.8887C82.6822 44.2601 82.5385 44.6588 82.4593 45.0713C81.9583 47.0282 81.2071 48.9181 80.2228 50.6983C79.7493 51.4529 79.3624 52.2545 79.0687 53.089C78.823 53.937 78.8396 54.9034 79.354 55.6322C79.7728 56.2256 80.4423 56.5419 80.9683 57.027C81.4896 57.5077 81.7335 58.4322 82.3109 58.7962C82.8149 59.114 83.4187 58.8897 83.9328 59.2265C84.5928 59.6589 84.6405 60.607 85.4178 60.9535Z" fill="#333333"/>
<path d="M93.5714 83.0049L94.5344 81.1577C94.5344 81.1577 108.658 85.16 111.547 88.8544C111.547 88.8544 118.608 84.5442 122.46 85.16L126.312 85.7757L114.435 95.9353L99.3491 94.7039L93.5714 83.0049Z" fill="#CCCCCC"/>
<path d="M92.9295 81.1577L79.7692 98.7061L98.7073 107.634C98.7073 107.634 100.478 108.558 101.839 107.634L114.436 102.093L126.312 85.7757L114.436 91.6252C114.436 91.6252 113.152 89.1622 110.584 90.3937L92.9295 81.1577Z" fill="#28A1C7"/>
<path d="M113.152 112.253L115.719 105.787C115.719 105.787 121.497 98.7064 118.287 95.3199C115.077 91.9334 111.547 105.172 111.547 105.172L113.152 112.253Z" fill="#FABBBB"/>
<path d="M83.5238 111.22L89.127 106.863C89.127 106.863 97.8289 103.518 96.8237 99.0444C95.8186 94.5703 85.8395 104.323 85.8395 104.323L83.5238 111.22Z" fill="#FABBBB"/>
<path opacity="0.1" d="M69.6581 80.0802H69.3371C69.3371 80.0802 64.3618 74.3846 63.3989 82.0813C62.4359 89.778 59.2261 115.331 67.5717 116.255C75.9173 117.178 81.8555 112.406 81.8555 112.406C81.8555 112.406 87.9542 103.478 85.7073 103.478C84.6202 103.478 81.6635 103.01 78.9667 103.17C76.0898 103.341 73.5047 104.119 73.6704 103.324C73.9914 101.785 78.6457 82.2352 69.6581 80.0802Z" fill="black"/>
<path d="M69.1766 74.0767L67.8926 73.4609C67.8926 73.4609 62.7569 74.3845 61.7939 82.0812C60.831 89.7779 57.6211 115.331 65.9667 116.254C74.3123 117.178 85.5468 115.023 85.5468 115.023C85.5468 115.023 87.7937 103.324 85.5468 103.324C83.2999 103.324 71.7444 104.863 72.0654 103.324C72.3864 101.785 78.1641 76.2317 69.1766 74.0767Z" fill="#004257"/>
<path d="M108.497 108.712L112.037 103.509L114.275 112.099L108.497 114.562V108.712Z" fill="#004257"/>
<path d="M35.7856 34.5159C40.572 34.5159 44.4522 30.7943 44.4522 26.2035C44.4522 21.6127 40.572 17.8911 35.7856 17.8911C30.9992 17.8911 27.119 21.6127 27.119 26.2035C27.119 30.7943 30.9992 34.5159 35.7856 34.5159Z" fill="#CCCCCC"/>
<path d="M46.0571 88.085H25.514V107.788H46.0571V88.085Z" fill="#CCCCCC"/>
<path d="M119.411 0L124.61 8.63782L129.81 17.2756H119.411H109.012L114.211 8.63782L119.411 0Z" fill="#CCCCCC"/>
<path d="M210.004 51.792C209.88 55.4773 208.944 58.4311 207.197 60.6535C205.45 62.8762 203.374 63.9876 200.97 63.9878C199.011 63.9878 197.295 62.9001 195.82 60.7248C194.345 58.5496 193.608 55.2035 193.608 50.6866C193.608 49.6881 193.633 48.7371 193.683 47.8337C193.732 46.9305 193.794 46.0747 193.868 45.2662L195.17 33.534H186.581C185.094 48.3686 183.873 57.1945 182.919 60.0117C181.965 62.8288 180.347 64.2373 178.067 64.2374C177.038 64.2132 176.056 63.8186 175.316 63.132C174.887 62.7673 174.547 62.3159 174.322 61.8102C174.097 61.3045 173.992 60.7572 174.015 60.2078C174.015 59.1146 174.913 57.5872 176.71 55.6255C178.507 53.6641 179.505 51.8752 179.703 50.2586L181.934 33.534H178.327C177.311 33.5398 176.31 33.7782 175.409 34.2294C174.579 34.5948 173.857 35.1524 173.308 35.8519L171.709 38.1341H170.408C171.622 34.5208 173.116 31.8047 174.888 29.9858C176.66 28.1671 178.699 27.2578 181.004 27.2578H209.41V33.534H199.817C199.52 36.3868 199.29 39.2396 199.129 42.0924C198.968 44.9452 198.887 47.8099 198.888 50.6865C198.888 52.6361 199.359 54.2171 200.301 55.4294C201.242 56.6418 202.42 57.248 203.833 57.248C204.7 57.248 205.611 56.9092 206.565 56.2316C207.019 55.9267 207.398 55.5314 207.677 55.0729C207.956 54.6144 208.129 54.1034 208.183 53.575C208.257 53.0523 208.313 52.6422 208.35 52.3447C208.387 52.0477 208.406 51.8635 208.406 51.792L210.004 51.792Z" fill="#28A1C7"/>
<path opacity="0.1" d="M210.004 51.792C209.88 55.4773 208.944 58.4311 207.197 60.6535C205.45 62.8762 203.374 63.9876 200.97 63.9878C199.011 63.9878 197.295 62.9001 195.82 60.7248C194.345 58.5496 193.608 55.2035 193.608 50.6866C193.608 49.6881 193.633 48.7371 193.683 47.8337C193.732 46.9305 193.794 46.0747 193.868 45.2662L195.17 33.534H186.581C185.094 48.3686 183.873 57.1945 182.919 60.0117C181.965 62.8288 180.347 64.2373 178.067 64.2374C177.038 64.2132 176.056 63.8186 175.316 63.132C174.887 62.7673 174.547 62.3159 174.322 61.8102C174.097 61.3045 173.992 60.7572 174.015 60.2078C174.015 59.1146 174.913 57.5872 176.71 55.6255C178.507 53.6641 179.505 51.8752 179.703 50.2586L181.934 33.534H178.327C177.311 33.5398 176.31 33.7782 175.409 34.2294C174.579 34.5948 173.857 35.1524 173.308 35.8519L171.709 38.1341H170.408C171.622 34.5208 173.116 31.8047 174.888 29.9858C176.66 28.1671 178.699 27.2578 181.004 27.2578H209.41V33.534H199.817C199.52 36.3868 199.29 39.2396 199.129 42.0924C198.968 44.9452 198.887 47.8099 198.888 50.6865C198.888 52.6361 199.359 54.2171 200.301 55.4294C201.242 56.6418 202.42 57.248 203.833 57.248C204.7 57.248 205.611 56.9092 206.565 56.2316C207.019 55.9267 207.398 55.5314 207.677 55.0729C207.956 54.6144 208.129 54.1034 208.183 53.575C208.257 53.0523 208.313 52.6422 208.35 52.3447C208.387 52.0477 208.406 51.8635 208.406 51.792L210.004 51.792Z" fill="black"/>
<path d="M210.004 50.6777C209.88 54.363 208.944 57.3168 207.197 59.5392C205.45 61.7619 203.374 62.8733 200.97 62.8735C199.011 62.8735 197.295 61.7859 195.82 59.6106C194.345 57.4353 193.608 54.0892 193.608 49.5723C193.608 48.5738 193.633 47.6229 193.683 46.7195C193.732 45.8162 193.794 44.9604 193.868 44.152L195.17 32.4198H186.581C185.094 47.2544 183.873 56.0802 182.919 58.8974C181.965 61.7145 180.347 63.1231 178.067 63.1232C177.038 63.0989 176.056 62.7043 175.316 62.0177C174.887 61.653 174.547 61.2016 174.322 60.6959C174.097 60.1902 173.992 59.6429 174.015 59.0935C174.015 58.0004 174.913 56.4729 176.71 54.5112C178.507 52.5499 179.505 50.7609 179.703 49.1444L181.934 32.4198H178.327C177.311 32.4256 176.31 32.664 175.409 33.1151C174.579 33.4806 173.857 34.0381 173.308 34.7376L171.709 37.0199H170.408C171.622 33.4065 173.116 30.6904 174.888 28.8716C176.66 27.0529 178.699 26.1435 181.004 26.1436H209.41V32.4198H199.817C199.52 35.2726 199.29 38.1254 199.129 40.9782C198.968 43.831 198.887 46.6957 198.888 49.5723C198.888 51.5219 199.359 53.1028 200.301 54.3151C201.242 55.5276 202.42 56.1338 203.833 56.1337C204.7 56.1337 205.611 55.7949 206.565 55.1174C207.019 54.8124 207.398 54.4172 207.677 53.9587C207.956 53.5001 208.129 52.9892 208.183 52.4608C208.257 51.9381 208.313 51.528 208.35 51.2305C208.387 50.9335 208.406 50.7492 208.406 50.6777H210.004Z" fill="#28A1C7"/>
</g>
<defs>
<clipPath id="clip0">
<rect width="210" height="210" fill="white" transform="translate(0.00439453)"/>
</clipPath>
</defs>
</svg>
