<svg width="210" height="210" viewBox="0 0 210 210" fill="none" xmlns="http://www.w3.org/2000/svg">
<g clip-path="url(#clip0)">
<path d="M12.5537 198.71C12.5537 198.71 3.56578 198.03 4.62469 205.933C4.62469 205.933 4.41205 207.328 5.42206 207.962C5.42206 207.962 5.43907 207.376 6.34488 207.576C6.6672 207.644 6.99483 207.663 7.32086 207.634C7.76223 207.596 8.18174 207.379 8.51586 207.016C8.51586 207.016 11.0419 205.706 12.0264 200.527C12.0264 200.527 12.7536 199.396 12.7239 199.105L11.2078 199.905C11.2078 199.905 11.7245 201.279 11.3184 202.418C11.3184 202.418 11.2673 199.956 10.976 200.017C10.9165 200.031 10.1893 200.495 10.1893 200.495C10.1893 200.495 11.0802 202.895 10.4019 204.623C10.4019 204.623 10.6571 201.676 9.90435 200.665L8.84119 201.449C8.84119 201.449 9.88521 203.919 9.17715 205.933C9.17715 205.933 9.35788 202.842 8.61792 201.639L7.65044 202.586C7.65044 202.586 8.62855 205.021 8.03106 206.69C8.03106 206.69 7.95451 203.092 7.43994 202.82C7.43994 202.82 6.58941 203.756 6.46395 204.154C6.46395 204.154 7.13587 205.919 6.71911 206.853C6.71911 206.853 6.46396 204.453 6.25558 204.453C6.25558 204.453 5.40505 206.039 5.32425 207.12C5.32425 207.12 5.36039 205.498 6.04932 204.29C5.56303 204.405 5.11426 204.696 4.75865 205.127C4.75865 205.127 4.89047 204.004 6.2577 203.906C6.2577 203.906 6.95514 202.703 7.14225 202.628C7.14225 202.628 5.78141 202.487 4.95639 202.946C4.95639 202.946 5.68147 201.879 7.39103 202.367L8.34788 201.388C8.34788 201.388 6.55539 201.081 5.79629 201.42C5.79629 201.42 6.67021 200.484 8.60516 201.167L9.64494 200.388C9.64494 200.388 8.11611 199.975 7.20604 200.121C7.20604 200.121 8.16714 199.471 9.949 200.175L10.6932 199.756C10.6932 199.756 9.57264 199.489 9.24519 199.436C8.91773 199.383 8.90072 199.279 8.90072 199.279C9.60984 199.13 10.3379 199.232 11.0037 199.572C11.0037 199.572 12.5814 198.836 12.5537 198.71Z" fill="#990909"/>
<path opacity="0.1" d="M6.36196 210C9.87558 210 12.7239 209.396 12.7239 208.65C12.7239 207.905 9.87558 207.301 6.36196 207.301C2.84835 207.301 0 207.905 0 208.65C0 209.396 2.84835 210 6.36196 210Z" fill="#990909"/>
<path d="M209.904 180.764C209.904 180.764 204.835 180.38 205.439 184.834C205.408 185.06 205.435 185.293 205.516 185.499C205.597 185.705 205.728 185.874 205.89 185.981C205.89 185.981 205.89 185.65 206.409 185.762C206.591 185.8 206.776 185.81 206.959 185.794C207.208 185.774 207.445 185.652 207.634 185.447C207.634 185.447 209.058 184.709 209.613 181.788C209.613 181.788 210.021 181.151 210.006 180.988L209.156 181.447C209.156 181.447 209.447 182.22 209.218 182.866C209.218 182.866 209.19 181.476 209.026 181.508C208.992 181.508 208.58 181.775 208.58 181.775C208.58 181.775 209.084 183.108 208.705 184.101C208.705 184.101 208.848 182.442 208.425 181.871L207.821 182.311C207.821 182.311 208.41 183.706 208.01 184.842C208.01 184.842 208.114 183.098 207.695 182.42L207.149 182.954C207.149 182.954 207.702 184.325 207.361 185.269C207.361 185.269 207.317 183.239 207.027 183.087C206.82 183.306 206.636 183.556 206.477 183.831C206.477 183.831 206.855 184.826 206.621 185.354C206.621 185.354 206.477 184.002 206.358 183.997C206.358 183.997 205.884 184.89 205.835 185.503C205.856 184.934 205.997 184.382 206.243 183.903C205.969 183.969 205.716 184.134 205.516 184.378C205.516 184.378 205.59 183.743 206.366 183.687C206.366 183.687 206.76 183.01 206.866 182.967C206.866 182.967 206.098 182.887 205.633 183.146C205.633 183.146 206.043 182.548 207.006 182.82L207.544 182.268C207.544 182.268 206.534 182.095 206.107 182.287C206.107 182.287 206.6 181.754 207.689 182.143L208.276 181.703C207.825 181.579 207.363 181.53 206.902 181.556C206.902 181.556 207.442 181.188 208.448 181.586L208.873 181.348C208.873 181.348 208.235 181.194 208.059 181.17C207.882 181.146 207.863 181.082 207.863 181.082C208.263 180.998 208.674 181.055 209.05 181.247C209.05 181.247 209.919 180.834 209.904 180.764Z" fill="#990909"/>
<path opacity="0.1" d="M206.413 187.128C208.394 187.128 210 186.787 210 186.368C210 185.948 208.394 185.607 206.413 185.607C204.432 185.607 202.826 185.948 202.826 186.368C202.826 186.787 204.432 187.128 206.413 187.128Z" fill="#990909"/>
<path d="M199.481 192.891C199.481 192.891 193.361 192.43 194.093 197.812C194.056 198.085 194.088 198.366 194.186 198.615C194.284 198.863 194.442 199.067 194.637 199.196C194.637 199.196 194.637 198.796 195.275 198.929C195.495 198.976 195.718 198.989 195.941 198.969C196.241 198.943 196.526 198.795 196.753 198.548C196.753 198.548 198.473 197.657 199.141 194.131C199.141 194.131 199.636 193.361 199.617 193.163L198.584 193.718C198.584 193.718 198.937 194.651 198.66 195.428C198.66 195.428 198.626 193.75 198.429 193.79C198.388 193.79 197.891 194.113 197.891 194.113C197.891 194.113 198.499 195.742 198.039 196.924C198.039 196.924 198.214 194.918 197.701 194.233L196.974 194.766C196.974 194.766 197.684 196.449 197.204 197.82C197.204 197.82 197.327 195.716 196.821 194.886L196.164 195.529C196.164 195.529 196.83 197.188 196.423 198.324C196.423 198.324 196.37 195.876 196.019 195.692C196.019 195.692 195.443 196.326 195.356 196.59C195.356 196.59 195.813 197.793 195.53 198.428C195.53 198.428 195.356 196.796 195.214 196.788C195.214 196.788 194.639 197.868 194.576 198.609C194.604 197.924 194.775 197.261 195.071 196.684C194.74 196.762 194.434 196.961 194.191 197.254C194.191 197.254 194.28 196.492 195.211 196.425C195.211 196.425 195.686 195.604 195.813 195.553C195.813 195.553 194.886 195.457 194.325 195.769C194.325 195.769 194.82 195.049 195.983 195.377L196.634 194.71C196.634 194.71 195.413 194.499 194.897 194.731C194.897 194.731 195.492 194.094 196.81 194.558L197.518 194.025C197.518 194.025 196.479 193.745 195.86 193.846C195.86 193.846 196.513 193.403 197.727 193.883L198.233 193.598C198.233 193.598 197.47 193.409 197.248 193.379C197.027 193.35 197.012 193.273 197.012 193.273C197.495 193.172 197.99 193.241 198.443 193.473C198.443 193.473 199.498 192.977 199.481 192.891Z" fill="#990909"/>
<path opacity="0.1" d="M195.265 200.575C197.657 200.575 199.596 200.164 199.596 199.657C199.596 199.151 197.657 198.74 195.265 198.74C192.873 198.74 190.933 199.151 190.933 199.657C190.933 200.164 192.873 200.575 195.265 200.575Z" fill="#990909"/>
<path opacity="0.1" d="M171.273 197.58C182.116 197.58 190.906 195.859 190.906 193.737C190.906 191.614 182.116 189.894 171.273 189.894C160.431 189.894 151.641 191.614 151.641 193.737C151.641 195.859 160.431 197.58 171.273 197.58Z" fill="#990909"/>
<path opacity="0.1" d="M109.149 207.581C121.332 207.581 131.209 206.338 131.209 204.805C131.209 203.271 121.332 202.028 109.149 202.028C96.9648 202.028 87.0879 203.271 87.0879 204.805C87.0879 206.338 96.9648 207.581 109.149 207.581Z" fill="#990909"/>
<path opacity="0.1" d="M42.3117 204.823C51.5596 204.823 59.0565 204.243 59.0565 203.527C59.0565 202.811 51.5596 202.231 42.3117 202.231C33.0638 202.231 25.5669 202.811 25.5669 203.527C25.5669 204.243 33.0638 204.823 42.3117 204.823Z" fill="#990909"/>
<path opacity="0.1" d="M72.042 9.13441C78.253 2.20019 88.0043 0.77868 96.8775 1.33075C124.751 3.06697 149.912 19.9464 171.677 39.0395C179.557 45.9497 187.314 53.3987 192.428 62.9172C202.847 82.2904 199.751 109.131 185.275 125.093C180.348 130.523 174.378 134.694 168.248 138.377C157.348 144.941 145.587 150.208 133.218 151.713C124.396 152.779 115.466 151.913 106.697 150.419C82.1931 146.248 58.1422 137.031 37.9847 121.269C29.1434 114.334 20.8082 105.747 17.1637 94.5586C13.5192 83.3705 15.8518 69.1927 24.8801 62.5705C28.614 59.8315 33.0792 58.594 37.4488 57.4339C43.8831 55.7243 50.4194 54.0388 56.2264 50.561C62.2226 46.9712 69.3224 40.029 68.1338 32.084C66.8623 23.5576 65.8395 16.0686 72.042 9.13441Z" fill="#990909"/>
<path opacity="0.9" d="M123.51 104.488V53.5642H129.038V38.3623H89.4247V53.5642H94.9531V104.488C87.3184 108.125 80.7457 114.588 76.1073 123.019C71.4689 131.45 68.984 141.451 68.9822 151.694C68.9822 179.578 87.0049 202.18 109.236 202.18C131.466 202.18 149.487 179.578 149.487 151.694C149.485 141.449 146.999 131.448 142.36 123.017C137.72 114.586 131.146 108.123 123.51 104.488Z" fill="#B1D3DE"/>
<path opacity="0.1" d="M123.51 53.4067H94.9446V54.0922H123.51V53.4067Z" fill="black"/>
<path d="M86.7136 150.339C86.7136 150.339 110.954 149.806 123.074 142.197C135.194 134.588 142.119 141.381 141.469 145.997C140.818 150.614 137.358 159.567 123.508 160.666C109.657 161.765 86.7136 150.339 86.7136 150.339Z" fill="#990909"/>
<path opacity="0.1" d="M86.7136 150.339C86.7136 150.339 110.954 149.806 123.074 142.197C135.194 134.588 142.119 141.381 141.469 145.997C140.818 150.614 137.358 159.567 123.508 160.666C109.657 161.765 86.7136 150.339 86.7136 150.339Z" fill="black"/>
<path d="M76.3329 145.458C76.3329 145.458 73.7431 190.518 107.711 191.331C141.679 192.144 141.471 145.992 141.471 145.992C141.471 145.992 128.925 163.09 99.2717 148.976C99.2717 148.987 83.9069 143.829 76.3329 145.458Z" fill="#990909"/>
<path opacity="0.1" d="M141.36 146.155C140.682 156.535 136.283 189.027 107.724 188.341C79.7287 187.677 76.5584 156.98 76.3096 146.181C76.1544 151.977 76.2926 190.574 107.718 191.328C141.694 192.128 141.477 145.989 141.477 145.989C141.477 145.989 141.435 146.056 141.36 146.155Z" fill="black"/>
<path opacity="0.3" d="M107.917 131.545C110.352 131.545 112.325 129.069 112.325 126.016C112.325 122.963 110.352 120.487 107.917 120.487C105.483 120.487 103.51 122.963 103.51 126.016C103.51 129.069 105.483 131.545 107.917 131.545Z" fill="#990909"/>
<path opacity="0.3" d="M110.435 107.32C111.942 107.32 113.163 105.788 113.163 103.898C113.163 102.009 111.942 100.477 110.435 100.477C108.928 100.477 107.707 102.009 107.707 103.898C107.707 105.788 108.928 107.32 110.435 107.32Z" fill="#990909"/>
<path opacity="0.3" d="M104.347 87.5711C105.854 87.5711 107.075 86.0391 107.075 84.1493C107.075 82.2595 105.854 80.7275 104.347 80.7275C102.841 80.7275 101.619 82.2595 101.619 84.1493C101.619 86.0391 102.841 87.5711 104.347 87.5711Z" fill="#990909"/>
<path opacity="0.2" d="M80.9725 130.28C80.7386 132.611 80.7853 135.529 82.446 136.617C81.0533 135.705 86.7624 125.362 85.9523 123.25C84.2193 118.743 81.1851 128.115 80.9725 130.28Z" fill="#FAFAFA"/>
<path opacity="0.3" d="M102.142 28.201C104.577 28.201 106.55 25.7257 106.55 22.6723C106.55 19.6188 104.577 17.1436 102.142 17.1436C99.7078 17.1436 97.7344 19.6188 97.7344 22.6723C97.7344 25.7257 99.7078 28.201 102.142 28.201Z" fill="#990909"/>
<path opacity="0.3" d="M115.366 17.3037C117.175 17.3037 118.642 15.4636 118.642 13.1938C118.642 10.924 117.175 9.08398 115.366 9.08398C113.556 9.08398 112.089 10.924 112.089 13.1938C112.089 15.4636 113.556 17.3037 115.366 17.3037Z" fill="#990909"/>
<path opacity="0.3" d="M105.921 4.27254C106.861 4.27254 107.624 3.3161 107.624 2.13627C107.624 0.956441 106.861 0 105.921 0C104.98 0 104.218 0.956441 104.218 2.13627C104.218 3.3161 104.98 4.27254 105.921 4.27254Z" fill="#990909"/>
<path opacity="0.9" d="M60.3472 70.1904H24.7249V83.4428H30.1534V186.832C30.1319 188.889 30.4363 190.931 31.0491 192.839C31.6618 194.748 32.5707 196.484 33.7228 197.948C34.875 199.413 36.2475 200.575 37.7608 201.369C39.2741 202.162 40.8979 202.571 42.5381 202.571C44.1783 202.571 45.8022 202.162 47.3154 201.369C48.8287 200.575 50.2013 199.413 51.3534 197.948C52.5056 196.484 53.4144 194.748 54.0272 192.839C54.6399 190.931 54.9444 188.889 54.9229 186.832V83.4428H60.3472V70.1904Z" fill="#B1D3DE"/>
<path d="M38.4056 106.867C38.4056 106.867 47.2214 102.917 49.6752 105.726C49.6752 105.726 46.1051 112.308 42.8178 112.044C39.5305 111.78 38.4056 106.867 38.4056 106.867Z" fill="#990909"/>
<path opacity="0.1" d="M38.4056 106.867C38.4056 106.867 47.2214 102.917 49.6752 105.726C49.6752 105.726 46.1051 112.308 42.8178 112.044C39.5305 111.78 38.4056 106.867 38.4056 106.867Z" fill="black"/>
<path d="M49.6709 105.736V180.775C49.6709 182.02 49.4755 183.252 49.0957 184.402C48.7159 185.552 48.1593 186.597 47.4575 187.477C46.7558 188.358 45.9227 189.056 45.0059 189.532C44.089 190.008 43.1064 190.254 42.114 190.254C40.1097 190.254 38.1876 189.255 36.7704 187.477C35.3532 185.7 34.557 183.289 34.557 180.775V105.736C34.557 105.736 38.1952 104.507 41.6228 107.142C45.0504 109.777 49.6709 105.736 49.6709 105.736Z" fill="#990909"/>
<path opacity="0.1" d="M54.9187 83.3599H30.1492V83.9706H54.9187V83.3599Z" fill="black"/>
<path opacity="0.1" d="M42.114 185.69C41.1214 185.69 40.1385 185.445 39.2216 184.968C38.3046 184.492 37.4714 183.793 36.7696 182.913C36.0679 182.033 35.5113 180.987 35.1316 179.837C34.752 178.687 34.5567 177.454 34.557 176.209V180.948C34.557 183.462 35.3532 185.873 36.7704 187.651C38.1876 189.428 40.1097 190.427 42.114 190.427C44.1182 190.427 46.0403 189.428 47.4575 187.651C48.8747 185.873 49.6709 183.462 49.6709 180.948V176.209C49.6712 177.454 49.4759 178.687 49.0963 179.837C48.7166 180.987 48.1601 182.033 47.4583 182.913C46.7565 183.793 45.9234 184.492 45.0064 184.968C44.0894 185.445 43.1065 185.69 42.114 185.69Z" fill="black"/>
<path opacity="0.3" d="M42.1161 98.3672C42.9663 98.3672 43.6556 97.5027 43.6556 96.4363C43.6556 95.3699 42.9663 94.5054 42.1161 94.5054C41.2659 94.5054 40.5767 95.3699 40.5767 96.4363C40.5767 97.5027 41.2659 98.3672 42.1161 98.3672Z" fill="#990909"/>
<path opacity="0.3" d="M47.1533 90.8193C47.6947 90.8193 48.1336 90.2689 48.1336 89.5898C48.1336 88.9108 47.6947 88.3604 47.1533 88.3604C46.612 88.3604 46.1731 88.9108 46.1731 89.5898C46.1731 90.2689 46.612 90.8193 47.1533 90.8193Z" fill="#990909"/>
<path opacity="0.3" d="M40.2959 88.3633C40.8373 88.3633 41.2761 87.8128 41.2761 87.1338C41.2761 86.4548 40.8373 85.9043 40.2959 85.9043C39.7545 85.9043 39.3157 86.4548 39.3157 87.1338C39.3157 87.8128 39.7545 88.3633 40.2959 88.3633Z" fill="#990909"/>
<path opacity="0.2" d="M32.0671 121.066C31.8332 123.397 31.8799 126.314 33.5406 127.403C32.1457 126.491 37.857 116.151 37.0469 114.036C35.3097 109.534 32.2797 118.903 32.0671 121.066Z" fill="#FAFAFA"/>
<path opacity="0.3" d="M45.3098 61.8986C47.3754 61.8986 49.05 59.7983 49.05 57.2074C49.05 54.6165 47.3754 52.5161 45.3098 52.5161C43.2441 52.5161 41.5696 54.6165 41.5696 57.2074C41.5696 59.7983 43.2441 61.8986 45.3098 61.8986Z" fill="#990909"/>
<path opacity="0.3" d="M34.0892 52.6522C35.6252 52.6522 36.8704 51.0904 36.8704 49.1637C36.8704 47.2371 35.6252 45.6753 34.0892 45.6753C32.5532 45.6753 31.308 47.2371 31.308 49.1637C31.308 51.0904 32.5532 52.6522 34.0892 52.6522Z" fill="#990909"/>
<path opacity="0.3" d="M42.1034 41.5944C42.9019 41.5944 43.5493 40.7825 43.5493 39.7809C43.5493 38.7792 42.9019 37.9673 42.1034 37.9673C41.3048 37.9673 40.6575 38.7792 40.6575 39.7809C40.6575 40.7825 41.3048 41.5944 42.1034 41.5944Z" fill="#990909"/>
<path d="M190.489 120.367C190.489 120.367 187.225 100.008 188.473 97.4739C188.473 97.4739 188.518 95.119 188.443 92.1186C188.443 92.0039 188.443 91.8892 188.443 91.7719C188.662 91.9589 188.891 92.1265 189.128 92.2733C190.279 93.0174 191.601 93.2316 192.864 92.8787L191.871 91.4972C191.635 91.1665 191.386 90.8117 191.335 90.3744C191.322 89.9536 191.395 89.5357 191.548 89.1609C192.486 86.1871 192.543 82.4453 190.727 80.1757C189.2 78.2662 188.826 75.8018 187.176 74.0603C185.964 72.7828 185.299 70.9105 184.669 69.105C184.138 67.5741 183.606 66.0326 183.298 64.4111C183.06 63.1442 182.966 61.8347 182.639 60.5972C182.311 59.3598 181.703 58.1569 180.748 57.6049C180.394 57.4497 180.051 57.2588 179.721 57.0341C179.313 56.6901 179.068 56.13 178.775 55.6419C177.287 53.159 172.268 54.6205 169.896 55.6286C169.251 55.8821 168.654 56.2967 168.141 56.8474L168.163 56.8021L168.222 56.6927C167.963 56.956 167.739 57.2693 167.559 57.6209C167.212 58.3089 167.067 59.117 166.78 59.8425C166.432 60.7226 164.497 63.1789 165.328 64.1684C165.385 64.2346 165.451 64.2886 165.522 64.3284C165.832 64.4873 166.173 64.53 166.502 64.4511C166.489 64.4857 166.476 64.5204 166.466 64.5551C166.183 65.4284 166.039 66.3623 166.04 67.3048C166.055 69.2778 166.693 71.163 167.815 72.5459C168.937 73.9288 170.451 74.6961 172.024 74.679C172.646 74.6802 173.264 74.5615 173.857 74.327C173.872 74.4203 173.884 74.5137 173.897 74.607C173.897 74.647 173.897 74.6844 173.912 74.7217L173.808 74.9057L173.791 74.871L170.689 80.3117C170.214 80.7278 167.482 83.2081 167.335 85.067C167.174 87.1019 167.012 89.4862 167.012 89.4862L166.991 89.9956C166.855 90.1375 166.697 90.241 166.527 90.299C166.357 90.357 166.178 90.3681 166.004 90.3317C165.037 90.1317 165.037 94.8016 165.037 94.8016C165.037 94.8016 164.399 95.5457 163.95 94.9003C163.502 94.2548 162.339 96.4391 162.339 96.4391L155.005 96.8365H154.837L154.441 95.3003C154.398 95.1416 154.307 95.0102 154.188 94.9336C154.07 94.857 153.932 94.8412 153.803 94.8896C153.772 94.9003 153.742 94.9155 153.714 94.9349L153.689 94.9563C153.67 94.9692 153.653 94.9844 153.638 95.0016C153.627 95.0099 153.618 95.0198 153.61 95.0309C153.595 95.0465 153.582 95.0634 153.57 95.0816C153.562 95.0927 153.555 95.1042 153.548 95.1163L153.536 95.1323C153.49 95.2113 153.46 95.3026 153.447 95.3989C153.435 95.4952 153.44 95.5939 153.463 95.687L153.803 97.0045C152.389 97.3619 150.941 98.3674 152.122 101.141L146.142 99.7569L148.077 101.792L158.071 104.379C157.939 104.678 158.026 105.107 158.439 105.712C160.214 108.331 163.459 109.041 164.763 109.227C165.105 110.191 165.533 111.102 166.038 111.945L165.924 114.553C165.924 114.553 162.623 134.447 162.017 135.457C162.317 135.021 162.591 134.557 162.836 134.071C161.877 138.159 160.538 143.754 160.187 144.592C159.621 145.925 159.098 151.345 159.742 151.694C159.944 151.801 160.504 151.75 161.309 151.673V152.121L161.273 169.123C161.273 169.123 161.435 179.554 160.99 180.546C160.546 181.538 160.427 183.624 160.427 183.624C160.427 183.624 158.645 187.739 157.237 189.392L157.206 189.427L157.161 189.038C157.161 189.038 155.46 191.721 151.722 191.571C151.722 191.571 149.466 193.409 152.81 193.507C156.155 193.606 160.425 193.358 160.425 193.358C160.425 193.358 163.402 187.648 165.904 188.392V192.713H166.67V188.355C167.025 188.061 167.328 187.68 167.562 187.235C167.796 186.79 167.956 186.29 168.031 185.765C168.097 185.226 168.049 184.674 167.893 184.164C167.737 183.655 167.477 183.206 167.14 182.861C166.988 182.688 166.866 182.479 166.782 182.245C166.698 182.011 166.653 181.757 166.651 181.501L166.623 181.53C166.623 181.445 166.606 181.357 166.595 181.263C166.383 179.028 166.104 174.43 167.074 171.022C168.403 166.352 168.807 159.85 167.839 155.975C167.528 154.738 167.272 153.479 167.074 152.206C167.05 152.044 167.027 151.892 167.008 151.747C167.67 151.861 168.326 152.029 168.971 152.252C171.216 153.025 176.121 153.169 180.31 153.129C180.321 153.273 180.334 153.422 180.346 153.574C180.423 154.622 180.581 155.659 180.818 156.668C181.342 158.658 181.584 167.395 181.584 167.395C181.584 167.395 182.262 174.582 181.892 177.511C181.68 179.138 181.501 180.77 181.384 182.41V182.442C181.384 182.442 180.274 186.413 179.47 188.576C179.449 188.632 179.43 188.686 179.409 188.739C179.191 188.764 178.977 188.822 178.771 188.912C178.771 188.912 177.684 191.643 176.596 192.091C175.507 192.539 175.87 194.028 178.328 193.481C180.787 192.934 184.495 192.489 184.495 192.489L184.656 189.707L185.411 188.523L185.22 191.297L186.026 191.099L185.919 187.723L187.155 185.784C187.155 185.784 188.643 184.12 186.43 180.845V180.914C186.406 180.866 186.383 180.818 186.357 180.772V180.756C185.992 180.042 185.698 178.711 186.234 176.348C187.202 172.081 187.765 168.206 187.765 168.206C187.765 168.206 189.928 157.828 187.327 152.916H187.444C187.177 152.225 186.988 151.49 186.883 150.734C186.87 150.643 186.859 150.55 186.847 150.467C188.76 150.329 190.659 149.891 192.196 148.952C192.179 148.923 191.254 124.291 190.489 120.367ZM166.072 103.192V103.24L165.675 103.264L166.072 103.192ZM164.718 103.427C164.653 103.444 164.591 103.481 164.539 103.533C164.37 103.835 164.263 104.185 164.229 104.552L163.612 104.376C163.612 104.376 163.187 104.261 162.549 104.133L162.253 103.763C163.074 103.667 163.916 103.552 164.718 103.427Z" fill="#E8E8E8"/>
<path d="M185.12 187.746L184.884 191.261L185.673 191.061L185.554 187.253L185.12 187.746Z" fill="#004257"/>
<path d="M167.129 171.07C166.179 174.465 166.451 179.049 166.663 181.276C166.742 182.1 166.814 182.61 166.814 182.61C166.814 182.61 165.394 186.669 165.275 186.818C165.156 186.968 161.09 190.077 161.09 190.077L158.25 192.155C158.25 192.155 155.368 190.571 156.761 190.021C157.043 189.879 157.297 189.661 157.505 189.384C158.883 187.736 160.629 183.636 160.629 183.636C160.629 183.636 160.746 181.559 161.18 180.569C161.613 179.58 161.456 169.187 161.456 169.187L161.492 152.241V150.032L166.897 150.083C166.932 150.833 167.01 151.579 167.131 152.315C167.326 153.584 167.577 154.837 167.884 156.07C168.824 159.94 168.43 166.416 167.129 171.07Z" fill="#FABBBB"/>
<path opacity="0.1" d="M166.812 182.61C166.812 182.61 165.392 186.669 165.273 186.818C165.154 186.968 161.09 190.077 161.09 190.077L158.25 192.155C158.25 192.155 155.368 190.571 156.761 190.021C157.043 189.879 157.297 189.662 157.505 189.384L157.629 190.467L158.577 190.416L166.663 181.276C166.74 182.098 166.812 182.61 166.812 182.61Z" fill="black"/>
<path d="M166.715 181.511L158.566 190.718L157.618 190.766L157.423 189.035C157.423 189.035 155.764 191.702 152.094 191.558C152.094 191.558 149.885 193.39 153.157 193.489C156.43 193.587 160.616 193.339 160.616 193.339C160.616 193.339 163.536 187.648 165.981 188.392V192.697H166.732V188.341C167.081 188.046 167.379 187.666 167.607 187.223C167.836 186.779 167.991 186.283 168.063 185.762C168.128 185.226 168.082 184.678 167.929 184.171C167.777 183.664 167.522 183.214 167.191 182.866C167.042 182.693 166.923 182.483 166.841 182.25C166.759 182.017 166.716 181.766 166.715 181.511Z" fill="#004257"/>
<path d="M185.87 176.363C185.345 178.718 185.632 180.044 185.989 180.756V180.772C186.454 181.653 186.777 182.64 186.94 183.676L186.974 183.9L183.266 190.68L181.254 191.669C181.254 191.669 178.018 190.285 178.609 189.888C178.758 189.789 178.99 189.277 179.247 188.554C180.04 186.421 181.129 182.458 181.129 182.458V182.423C181.241 180.788 181.424 179.161 181.626 177.54C181.988 174.625 181.324 167.461 181.324 167.461C181.324 167.461 181.088 158.753 180.574 156.772C180.342 155.765 180.188 154.732 180.112 153.689C180.006 152.443 179.983 151.427 179.983 151.427C179.983 151.427 182.109 147.715 186.019 151.723C186.33 152.045 186.604 152.419 186.834 152.835C189.532 157.636 187.361 168.253 187.361 168.253C187.361 168.253 186.817 172.11 185.87 176.363Z" fill="#FABBBB"/>
<path opacity="0.1" d="M186.974 183.887L183.266 190.667L181.254 191.656C181.254 191.656 178.018 190.272 178.609 189.875C178.758 189.776 178.99 189.264 179.247 188.541C180.616 188.541 181.326 190.163 181.326 190.163L183.062 189.819C183.062 189.819 185.352 184.175 185.864 183.831C186.376 183.487 185.943 181.255 185.943 181.255V180.687L185.983 180.748V180.764C186.451 181.647 186.776 182.637 186.94 183.677L186.974 183.887Z" fill="black"/>
<path d="M181.45 190.32C181.45 190.32 180.463 188.045 178.571 188.885C178.571 188.885 177.508 191.608 176.445 192.054C175.381 192.499 175.734 193.982 178.146 193.438C180.557 192.894 184.182 192.448 184.182 192.448L184.34 189.677L186.785 185.768C186.785 185.768 188.246 184.109 186.075 180.844V181.412C186.075 181.412 186.5 183.639 185.996 183.986C185.492 184.333 183.196 189.973 183.196 189.973L181.45 190.32Z" fill="#004257"/>
<path opacity="0.1" d="M166.891 150.086C166.926 150.836 167.004 151.582 167.125 152.318C164.898 151.907 162.834 152.113 161.481 152.243V150.035L166.891 150.086Z" fill="black"/>
<path opacity="0.1" d="M187.053 153.452C187.053 153.452 183.889 153.644 180.121 153.684C180.015 152.438 179.991 151.422 179.991 151.422C179.991 151.422 182.118 147.71 186.028 151.718C186.339 152.04 186.613 152.414 186.842 152.83C186.904 153.042 186.974 153.249 187.053 153.452Z" fill="black"/>
<path d="M187.053 153.006C187.053 153.006 173.204 153.846 168.979 152.363C164.754 150.88 160.576 152.163 159.944 151.816C159.313 151.47 159.827 146.077 160.37 144.741C160.912 143.405 163.961 129.894 163.961 129.894L166.88 110.79L169.959 109.723L170.172 109.648L175.532 107.782L179.464 106.421C179.464 106.421 187.276 144.677 186.604 147.493C186.361 148.574 186.322 149.711 186.491 150.814C186.597 151.574 186.786 152.311 187.053 153.006Z" fill="#004257"/>
<path d="M156.712 97.7246C156.712 97.7246 153.948 101.437 156.04 103.515C158.133 105.592 159.513 103.715 159.513 103.715L156.712 97.7246Z" fill="#77B4C7"/>
<path opacity="0.1" d="M156.712 97.7246C156.712 97.7246 153.948 101.437 156.04 103.515C158.133 105.592 159.513 103.715 159.513 103.715L156.712 97.7246Z" fill="black"/>
<path d="M179.064 73.2786C179.064 73.2786 178.741 73.6626 178.252 74.236C177.557 75.0494 176.528 76.2416 175.613 77.2417C174.337 78.6232 173.306 79.642 173.678 78.7699C174.05 77.8978 173.98 76.3989 173.795 74.9881L173.757 74.7081C173.603 73.672 173.398 72.6486 173.145 71.6437C173.145 71.6437 175.188 68.3313 176.319 67.0244C176.744 66.5364 177.036 66.3283 177.051 66.6697C177.072 67.1338 177.35 68.1472 177.688 69.246C177.701 69.2781 177.712 69.3127 177.723 69.3447C177.952 70.0835 178.209 70.8542 178.437 71.513C178.784 72.5238 179.064 73.2786 179.064 73.2786Z" fill="#FABBBB"/>
<path opacity="0.1" d="M177.72 69.345C177.528 70.6407 177.062 71.848 176.371 72.8407C175.68 73.8334 174.789 74.5751 173.791 74.9883C173.634 73.8564 173.417 72.739 173.14 71.6439C173.14 71.6439 176.987 65.4085 177.046 66.67C177.082 67.15 177.367 68.2115 177.72 69.345Z" fill="black"/>
<path opacity="0.1" d="M173.412 76.6553L173.91 75.7778C173.91 75.7778 174.239 78.3008 175.454 77.1887C176.668 76.0765 176.729 85.5631 176.729 85.5631L175.424 109.988L166.013 109.281L166.278 97.4793L167.342 91.5398L169.976 82.8907L171.554 80.0344L173.412 76.6553Z" fill="black"/>
<path d="M176.725 85.7122L175.547 107.795L175.424 110.134L170.176 109.742L169.963 109.726L166.006 109.43L166.272 97.6257L167.335 91.689L169.97 83.0399L171.554 80.1809L173.419 76.8044L173.916 75.9243C173.916 75.9243 174.246 78.45 175.46 77.3352L175.483 77.3138C176.668 76.359 176.725 85.7122 176.725 85.7122Z" fill="#004257"/>
<path d="M167.482 89.6089C167.482 89.6089 167.01 90.8464 166.062 90.649C165.113 90.4517 165.115 95.1029 165.115 95.1029C165.115 95.1029 164.478 95.8443 164.052 95.2016C163.627 94.5588 162.475 96.7351 162.475 96.7351L155.294 97.1325C155.294 97.1325 158.483 98.9621 157.858 104.507C157.858 104.507 168.703 103.664 169.064 102.373C169.425 101.082 167.482 89.6089 167.482 89.6089Z" fill="#FAFAFA"/>
<path opacity="0.03" d="M167.482 89.6089C167.482 89.6089 167.01 90.8464 166.062 90.649C165.113 90.4517 165.115 95.1029 165.115 95.1029C165.115 95.1029 164.478 95.8443 164.052 95.2016C163.627 94.5588 162.475 96.7351 162.475 96.7351L155.294 97.1325C155.294 97.1325 158.483 98.9621 157.858 104.507C157.858 104.507 168.703 103.664 169.064 102.373C169.425 101.082 167.482 89.6089 167.482 89.6089Z" fill="black"/>
<path d="M146.61 100.05L148.505 102.079L164.091 106.187L162.156 103.714L146.61 100.05Z" fill="#FAFAFA"/>
<path d="M173.44 77.4337C173.183 77.9191 172.443 80.4687 171.822 82.685C171.307 84.5306 170.876 86.1521 170.876 86.1521C170.876 86.1521 169.87 94.3692 169.357 95.852C168.845 97.3349 169.121 103.133 169.121 103.133L167.208 117.436C167.208 117.436 166.34 124.81 165.001 129.214C163.687 133.537 162.198 135.572 162.158 135.633C162.751 134.628 165.985 114.801 165.985 114.801L167.048 89.8059C167.048 89.8059 167.206 87.4323 167.365 85.4027C167.525 83.3731 170.718 80.6021 170.718 80.6021L173.806 75.0947C174.123 75.6361 173.914 76.5429 173.44 77.4337Z" fill="#FAFAFA"/>
<path d="M165.388 109.553C165.388 109.553 160.85 109.307 158.641 105.99C156.432 102.672 163.731 104.656 163.731 104.656L165.624 105.189L165.388 109.553Z" fill="#FABBBB"/>
<path opacity="0.1" d="M186.619 147.512C186.375 148.593 186.337 149.73 186.506 150.833C181.548 151.275 176.242 149.59 176.242 149.59C175.256 150.729 172.651 152.412 172.651 152.412L171.231 130.337C170.325 127.366 169.97 111.777 169.97 111.777C169.97 111.777 170.051 110.961 170.182 109.739C170.182 109.71 170.182 109.678 170.193 109.649C170.548 106.235 171.256 99.8262 171.592 98.9594C172.066 97.7726 170.133 94.6068 170.133 94.6068L171.012 85.1977L171.118 84.0642C172.974 83.024 174.395 79.709 174.395 79.709L175.483 77.3087C176.672 76.3539 176.729 85.7071 176.729 85.7071L175.551 107.79L179.483 106.43C179.483 106.43 187.289 144.691 186.619 147.512Z" fill="black"/>
<path d="M191.709 149.046C186.304 152.411 176.478 149.294 176.478 149.294C175.492 150.432 172.887 152.115 172.887 152.115L171.467 130.04C170.561 127.072 170.206 111.483 170.206 111.483C170.206 111.483 171.35 99.8526 171.822 98.6658C171.96 98.3191 171.894 97.8043 171.73 97.2496C170.924 94.6056 170.627 91.7598 170.865 88.9446L171.243 84.904L171.35 83.7706C173.204 82.7304 174.624 79.4127 174.624 79.4127L175.613 77.2417L177.433 73.2412L178.294 71.3477L178.439 71.513L179.557 72.7825C179.557 72.7825 180.032 73.2732 180.742 74.028C182.29 75.6629 184.965 78.5432 186.342 80.3035C187.557 81.8583 187.939 87.8938 188.044 92.4383C188.118 95.428 188.073 97.7723 188.073 97.7723C186.849 100.295 190.044 120.589 190.044 120.589C190.801 124.498 191.709 149.046 191.709 149.046Z" fill="#FAFAFA"/>
<path opacity="0.03" d="M181.335 79.3646C181.335 79.3646 177.625 88.2244 178.06 91.5875C178.496 94.9506 179.717 98.7644 179.124 99.6552C178.921 99.9925 178.658 100.266 178.357 100.455C178.056 100.644 177.723 100.743 177.386 100.743C176.795 100.794 175.215 102.178 175.215 102.328C175.215 102.477 173.757 102.477 172.451 103.17C171.146 103.864 169.215 104.258 169.215 104.258C169.215 104.258 165.466 104.109 165.111 104.554C164.756 105 164.401 107.672 165.152 109.8C165.902 111.929 166.729 113.513 167.361 113.801C167.992 114.089 171.977 112.417 175.211 112.019C178.445 111.622 181.973 108.416 181.973 108.416C181.973 108.416 185.839 106.683 186.511 103.762C187.182 100.842 185.681 84.808 185.681 84.808C185.681 84.808 184.525 77.335 181.335 79.3646Z" fill="black"/>
<path opacity="0.03" d="M180.859 78.6231C180.859 78.6231 177.15 87.4802 177.584 90.846C178.018 94.2118 179.241 98.0229 178.647 98.9137C178.444 99.251 178.182 99.5248 177.881 99.7135C177.579 99.9023 177.247 100.001 176.91 100.002C176.319 100.053 174.741 101.437 174.741 101.586C174.741 101.735 173.281 101.733 171.977 102.426C170.674 103.12 168.741 103.514 168.741 103.514C168.741 103.514 164.992 103.368 164.637 103.813C164.282 104.258 163.927 106.931 164.677 109.059C165.428 111.187 166.255 112.771 166.887 113.059C167.518 113.348 171.503 111.673 174.739 111.278C177.976 110.883 181.49 107.667 181.49 107.667C181.49 107.667 185.356 105.936 186.028 103.016C186.7 100.095 185.199 84.0611 185.199 84.0611C185.199 84.0611 184.055 76.5935 180.859 78.6231Z" fill="black"/>
<path d="M181.214 78.9196C181.214 78.9196 177.508 87.7793 177.933 91.1318C178.358 94.4842 179.589 98.3087 178.996 99.1994C178.794 99.5372 178.531 99.8113 178.23 100C177.928 100.189 177.596 100.287 177.259 100.288C176.668 100.338 175.09 101.722 175.09 101.872C175.09 102.021 173.629 102.021 172.326 102.715C171.022 103.408 169.09 103.803 169.09 103.803C169.09 103.803 165.341 103.653 164.986 104.099C164.631 104.544 164.276 107.216 165.026 109.345C165.777 111.473 166.604 113.057 167.235 113.345C167.867 113.633 171.852 111.961 175.088 111.564C178.324 111.166 181.835 107.953 181.835 107.953C181.835 107.953 185.7 106.219 186.372 103.299C187.044 100.378 185.543 84.3442 185.543 84.3442C185.543 84.3442 184.41 76.89 181.214 78.9196Z" fill="#FAFAFA"/>
<path opacity="0.1" d="M181.135 102.674C181.135 102.674 178.175 101.933 179.202 103.17C180.229 104.408 180.227 105.496 181.49 105.445C182.753 105.395 181.135 102.674 181.135 102.674Z" fill="black"/>
<path opacity="0.1" d="M186.147 129.35C186.147 129.35 184.805 130.488 187.37 133.11C189.934 135.732 186.147 129.35 186.147 129.35Z" fill="black"/>
<path opacity="0.1" d="M183.58 138.703C183.58 138.852 183.108 144.146 184.884 145.483C186.659 146.819 183.58 138.703 183.58 138.703Z" fill="black"/>
<path d="M155.409 97.127C153.98 97.1883 150.886 97.7377 152.489 101.488C153.908 104.805 156.289 102.589 157.622 100.903C157.297 99.3357 156.505 97.9841 155.409 97.127Z" fill="#FABBBB"/>
<path d="M157.646 100.874C157.667 100.85 157.686 100.823 157.705 100.799C157.686 100.823 157.667 100.85 157.646 100.874Z" fill="#FABBBB"/>
<path opacity="0.1" d="M180.742 74.1746C179.224 75.4761 177.95 76.5749 177.703 76.8043C177.021 77.4337 175.719 81.1461 174.89 83.0397C174.222 84.5652 172.06 84.9573 171.243 85.0533L171.341 83.9305C173.195 82.893 174.616 79.5753 174.616 79.5753L178.286 71.5103L179.549 72.9451C179.549 72.9451 180.032 73.4225 180.742 74.1746Z" fill="black"/>
<path d="M180.742 74.028C179.224 75.3268 177.95 76.4283 177.703 76.655C177.021 77.2871 175.719 80.9969 174.89 82.8905C174.222 84.416 172.06 84.808 171.243 84.904L171.35 83.7706C173.204 82.7304 174.624 79.4127 174.624 79.4127L178.294 71.3477L179.557 72.7825C179.557 72.7825 180.032 73.2626 180.742 74.028Z" fill="#CFE0E6"/>
<path d="M177.82 67.7101C177.821 68.2266 177.778 68.7417 177.69 69.2463C177.532 70.1894 177.226 71.0834 176.789 71.876C175.995 73.3249 174.813 74.3686 173.457 74.8179C172.102 75.2672 170.663 75.0922 169.402 74.3247C168.141 73.5573 167.141 72.2481 166.583 70.6349C166.026 69.0217 165.948 67.2112 166.363 65.532C166.779 63.8528 167.661 62.4162 168.849 61.4827C170.037 60.5493 171.452 60.1809 172.838 60.4444C174.224 60.7079 175.489 61.5858 176.403 62.9189C177.317 64.252 177.82 65.9519 177.82 67.7101Z" fill="#FABBBB"/>
<path opacity="0.1" d="M188.05 92.4385C187.248 91.8189 186.594 90.9376 186.16 89.8888C185.83 89.07 185.611 88.1286 185.046 87.5445C184.539 87.0271 183.855 86.8991 183.228 86.6671C181.15 85.8963 179.4 83.5147 179.341 80.7997C179.311 79.5222 179.628 78.2447 179.483 76.9805C179.401 76.2631 179.174 75.5843 178.822 75.0096C178.65 74.7326 178.459 74.4747 178.252 74.2388C177.975 73.9108 177.684 73.5934 177.433 73.244C177.27 73.0296 177.128 72.7925 177.008 72.5373C176.914 72.3281 176.838 72.1073 176.781 71.8785C176.394 70.3637 176.744 68.5608 176.311 67.0273C176.311 67.0006 176.296 66.9712 176.287 66.9446C176.121 66.3978 175.788 65.8538 175.326 65.8111C174.865 65.7684 174.463 66.2512 174.021 66.4699C173.093 66.9206 172.092 66.1525 171.32 65.3684C170.548 64.5843 169.676 63.6882 168.692 63.8642C168.043 63.9789 167.529 64.5363 166.931 64.8243C166.793 64.8878 166.651 64.9377 166.506 64.9737C167.014 63.3901 167.945 62.0776 169.14 61.2612C170.335 60.4447 171.719 60.1754 173.055 60.4993C174.391 60.8232 175.596 61.7202 176.462 63.0364C177.328 64.3526 177.803 66.0059 177.803 67.7127C177.805 68.2291 177.761 68.7442 177.674 69.2489C177.686 69.2809 177.697 69.3155 177.708 69.3476C177.937 70.0863 178.195 70.8571 178.422 71.5158L179.54 72.7853C179.54 72.7853 180.015 73.276 180.725 74.0308C182.273 75.6657 184.948 78.546 186.326 80.3063C187.557 81.8585 187.939 87.8939 188.05 92.4385Z" fill="black"/>
<path d="M166.876 60.2982C167.159 59.5754 167.301 58.7673 167.637 58.0846C168.133 57.0845 169 56.4577 169.887 56.0737C172.209 55.0709 177.116 53.612 178.581 56.0737C178.871 56.5617 179.109 57.1218 179.508 57.4658C179.832 57.6865 180.168 57.8756 180.514 58.0312C181.45 58.5833 182.047 59.7808 182.366 61.013C182.685 62.2451 182.779 63.5519 183.004 64.8161C183.302 66.4323 183.827 67.9658 184.348 69.4914C184.962 71.2916 185.624 73.1558 186.802 74.4307C188.42 76.1669 188.783 78.6232 190.278 80.5248C192.058 82.7864 192.001 86.5175 191.084 89.4779C190.932 89.8522 190.859 90.269 190.872 90.6887C190.958 91.1173 191.14 91.506 191.397 91.8089L192.368 93.185C191.208 93.4991 189.997 93.3307 188.919 92.7052C187.842 92.0796 186.956 91.0311 186.396 89.7179C186.064 88.8992 185.845 87.9577 185.279 87.3763C184.773 86.8562 184.091 86.7309 183.461 86.4962C181.384 85.7254 179.634 83.3438 179.574 80.6288C179.545 79.3539 179.861 78.0738 179.719 76.8096C179.634 76.1013 179.407 75.4316 179.06 74.8627C178.513 73.9719 177.695 73.3665 177.252 72.3904C176.504 70.7342 177.072 68.5792 176.532 66.7897C176.366 66.2563 176.034 65.6989 175.571 65.6562C175.107 65.6135 174.707 66.0989 174.265 66.315C173.338 66.7657 172.338 65.9976 171.567 65.2135C170.795 64.4294 169.921 63.5359 168.939 63.712C168.288 63.8266 167.775 64.3814 167.176 64.6694C166.733 64.8828 165.836 65.0748 165.447 64.6054C164.633 63.624 166.527 61.1756 166.876 60.2982Z" fill="#660606"/>
<path opacity="0.1" d="M186.949 88.8992C186.619 88.0804 186.4 87.139 185.834 86.5549C185.328 86.0348 184.644 85.9095 184.016 85.6775C181.939 84.9067 180.189 82.5251 180.129 79.8101C180.098 78.5326 180.417 77.2551 180.272 75.9909C180.19 75.2735 179.963 74.5947 179.611 74.02C179.066 73.1292 178.246 72.5211 177.805 71.545C177.055 69.8888 177.625 67.7339 177.085 65.9443C176.919 65.4109 176.587 64.8535 176.123 64.8108C175.66 64.7682 175.26 65.2509 174.818 65.4669C173.891 65.9203 172.889 65.1522 172.12 64.3681C171.35 63.584 170.474 62.6906 169.489 62.8639C168.851 62.9786 168.328 63.5333 167.729 63.824C167.286 64.0374 166.389 64.2294 166 63.76C165.186 62.7732 167.08 60.3249 167.423 59.4501C167.705 58.7274 167.848 57.9193 168.184 57.2365L168.241 57.1245C167.991 57.3901 167.776 57.7033 167.603 58.0526C167.263 58.7354 167.123 59.5435 166.842 60.2662C166.5 61.1437 164.605 63.592 165.42 64.5761C165.807 65.0455 166.695 64.8428 167.148 64.6401C167.746 64.3521 168.258 63.7974 168.909 63.68C169.891 63.5067 170.765 64.4001 171.537 65.1842C172.309 65.9683 173.31 66.7364 174.235 66.2857C174.68 66.0696 175.067 65.5816 175.541 65.6269C176.015 65.6723 176.338 66.2137 176.504 66.7604C177.044 68.5393 176.474 70.6942 177.223 72.3611C177.665 73.3346 178.486 73.9427 179.03 74.8334C179.382 75.4081 179.61 76.087 179.691 76.8043C179.836 78.0685 179.517 79.346 179.549 80.6235C179.615 83.3412 181.358 85.7228 183.436 86.4909C184.063 86.7229 184.748 86.8483 185.254 87.371C185.82 87.9524 186.036 88.8939 186.368 89.7126C186.928 91.0258 187.814 92.0744 188.892 92.6999C189.97 93.3254 191.18 93.4939 192.341 93.1798L191.884 92.529C189.877 92.5717 187.859 91.1475 186.949 88.8992Z" fill="black"/>
<path opacity="0.1" d="M173.323 77.5833C173.064 78.0687 172.324 80.6184 171.705 82.832C171.126 82.552 170.599 80.7491 170.599 80.7491L173.68 75.2417C174.003 75.7858 173.795 76.6925 173.323 77.5833Z" fill="black"/>
<path d="M173.44 77.4337C173.183 77.9191 172.443 80.4687 171.822 82.685C171.243 82.405 170.718 80.6021 170.718 80.6021L173.806 75.0947C174.122 75.6361 173.914 76.5429 173.44 77.4337Z" fill="#CFE0E6"/>
<path d="M155.492 102.76L153.78 95.9989C153.759 95.9194 153.752 95.8356 153.757 95.7523C153.762 95.669 153.781 95.5879 153.811 95.5135C153.842 95.4392 153.883 95.3731 153.934 95.3191C153.985 95.2651 154.044 95.2242 154.107 95.1988C154.171 95.1723 154.238 95.1619 154.304 95.1683C154.371 95.1747 154.436 95.1977 154.495 95.236C154.555 95.2742 154.607 95.327 154.65 95.3911C154.693 95.4552 154.726 95.5295 154.745 95.6095L156.457 102.376L156.287 103.792L155.492 102.76Z" fill="#E70E0E"/>
<path opacity="0.1" d="M153.942 95.3989C154.005 95.3732 154.072 95.3636 154.139 95.3705C154.205 95.3774 154.27 95.4007 154.329 95.4391C154.388 95.4776 154.441 95.5303 154.484 95.5943C154.527 95.6584 154.559 95.7325 154.58 95.8123L156.291 102.573L156.162 103.64L156.287 103.803L156.457 102.386L154.745 95.6256C154.726 95.5456 154.693 95.4714 154.65 95.4072C154.607 95.3431 154.555 95.2903 154.495 95.2521C154.436 95.2138 154.371 95.1908 154.304 95.1845C154.238 95.1781 154.171 95.1884 154.107 95.2149C154.001 95.2564 153.909 95.3419 153.846 95.4576C153.876 95.4337 153.908 95.414 153.942 95.3989Z" fill="#FAFAFA"/>
<path d="M155.492 102.76L156.453 102.375L156.312 103.538L156.283 103.792L156.002 103.424L155.492 102.76Z" fill="#E72525"/>
<path d="M156.002 103.424C156.02 103.398 156.04 103.377 156.064 103.36C156.077 103.349 156.093 103.344 156.109 103.344C156.125 103.344 156.141 103.349 156.155 103.36C156.169 103.38 156.18 103.402 156.189 103.427C156.202 103.455 156.22 103.479 156.241 103.497C156.262 103.515 156.287 103.526 156.312 103.531L156.283 103.797L156.002 103.424Z" fill="#007194"/>
<path d="M153.771 98.3941C153.771 98.3941 157.205 98.3701 156.395 100.2C155.585 102.029 154.324 102.253 154.324 102.253L153.771 98.3941Z" fill="#FABBBB"/>
</g>
<defs>
<clipPath id="clip0">
<rect width="210" height="210" fill="white"/>
</clipPath>
</defs>
</svg>
