<svg width="35" height="28" viewBox="0 0 35 28" fill="none" xmlns="http://www.w3.org/2000/svg">
<path d="M32.948 0.00817088C29.618 0.196472 22.9995 0.881862 18.9137 3.37397C18.6317 3.54592 18.4719 3.85169 18.4719 4.17137V26.2026C18.4719 26.9019 19.2394 27.3439 19.8865 27.0193C24.0903 24.9111 30.1698 24.3359 33.1758 24.1785C34.2022 24.1246 35 23.3048 35 22.3221V1.86696C35.0006 0.794675 34.0673 -0.0547979 32.948 0.00817088ZM16.0863 3.37397C12.0011 0.881862 5.38256 0.197077 2.05264 0.00817088C0.933349 -0.0547979 0 0.794675 0 1.86696V22.3227C0 23.306 0.797844 24.1258 1.82416 24.1791C4.83142 24.3365 10.914 24.9123 15.1177 27.0218C15.763 27.3457 16.5281 26.9043 16.5281 26.2068V4.16048C16.5281 3.84018 16.3689 3.54653 16.0863 3.37397Z" fill="#0098C7"/>
</svg>
