<svg width="31" height="35" viewBox="0 0 31 35" fill="none" xmlns="http://www.w3.org/2000/svg">
<path d="M10.4107 19.1299H7.73214C7.29018 19.1299 6.92857 18.7713 6.92857 18.333V15.6768C6.92857 15.2385 7.29018 14.8799 7.73214 14.8799H10.4107C10.8527 14.8799 11.2143 15.2385 11.2143 15.6768V18.333C11.2143 18.7713 10.8527 19.1299 10.4107 19.1299ZM17.6429 18.333V15.6768C17.6429 15.2385 17.2812 14.8799 16.8393 14.8799H14.1607C13.7188 14.8799 13.3571 15.2385 13.3571 15.6768V18.333C13.3571 18.7713 13.7188 19.1299 14.1607 19.1299H16.8393C17.2812 19.1299 17.6429 18.7713 17.6429 18.333ZM24.0714 18.333V15.6768C24.0714 15.2385 23.7098 14.8799 23.2679 14.8799H20.5893C20.1473 14.8799 19.7857 15.2385 19.7857 15.6768V18.333C19.7857 18.7713 20.1473 19.1299 20.5893 19.1299H23.2679C23.7098 19.1299 24.0714 18.7713 24.0714 18.333ZM17.6429 24.708V22.0518C17.6429 21.6135 17.2812 21.2549 16.8393 21.2549H14.1607C13.7188 21.2549 13.3571 21.6135 13.3571 22.0518V24.708C13.3571 25.1463 13.7188 25.5049 14.1607 25.5049H16.8393C17.2812 25.5049 17.6429 25.1463 17.6429 24.708ZM11.2143 24.708V22.0518C11.2143 21.6135 10.8527 21.2549 10.4107 21.2549H7.73214C7.29018 21.2549 6.92857 21.6135 6.92857 22.0518V24.708C6.92857 25.1463 7.29018 25.5049 7.73214 25.5049H10.4107C10.8527 25.5049 11.2143 25.1463 11.2143 24.708ZM24.0714 24.708V22.0518C24.0714 21.6135 23.7098 21.2549 23.2679 21.2549H20.5893C20.1473 21.2549 19.7857 21.6135 19.7857 22.0518V24.708C19.7857 25.1463 20.1473 25.5049 20.5893 25.5049H23.2679C23.7098 25.5049 24.0714 25.1463 24.0714 24.708ZM30.5 7.44238V30.8174C30.5 32.5771 29.0603 34.0049 27.2857 34.0049H3.71429C1.93973 34.0049 0.5 32.5771 0.5 30.8174V7.44238C0.5 5.68262 1.93973 4.25488 3.71429 4.25488H6.92857V0.801758C6.92857 0.363477 7.29018 0.00488281 7.73214 0.00488281H10.4107C10.8527 0.00488281 11.2143 0.363477 11.2143 0.801758V4.25488H19.7857V0.801758C19.7857 0.363477 20.1473 0.00488281 20.5893 0.00488281H23.2679C23.7098 0.00488281 24.0714 0.363477 24.0714 0.801758V4.25488H27.2857C29.0603 4.25488 30.5 5.68262 30.5 7.44238ZM27.2857 30.4189V10.6299H3.71429V30.4189C3.71429 30.6381 3.89509 30.8174 4.11607 30.8174H26.8839C27.1049 30.8174 27.2857 30.6381 27.2857 30.4189Z" fill="#0098C7"/>
</svg>
