<svg width="29" height="30" viewBox="0 0 29 30" fill="none" xmlns="http://www.w3.org/2000/svg">
<path d="M28.0553 18.1534L25.5592 16.712C25.8112 15.3526 25.8112 13.9581 25.5592 12.5987L28.0553 11.1573C28.3424 10.9932 28.4713 10.6534 28.3776 10.337C27.7272 8.25103 26.6198 6.36431 25.1725 4.794C24.9498 4.55377 24.5865 4.49517 24.3053 4.65923L21.8092 6.10064C20.7604 5.1983 19.5533 4.50103 18.2467 4.044V1.16705C18.2467 0.838922 18.0182 0.551813 17.6959 0.4815C15.5455 0.00103149 13.3424 0.024469 11.2975 0.4815C10.9752 0.551813 10.7467 0.838922 10.7467 1.16705V4.04986C9.44592 4.51275 8.23889 5.21002 7.1842 6.1065L4.69396 4.66509C4.40685 4.50103 4.04943 4.55377 3.82678 4.79986C2.37951 6.36431 1.27209 8.25103 0.621696 10.3428C0.522087 10.6592 0.656853 10.9991 0.943962 11.1631L3.44006 12.6045C3.1881 13.9639 3.1881 15.3585 3.44006 16.7178L0.943962 18.1592C0.656853 18.3233 0.527946 18.6631 0.621696 18.9795C1.27209 21.0655 2.37951 22.9522 3.82678 24.5225C4.04943 24.7627 4.41271 24.8213 4.69396 24.6573L7.19006 23.2159C8.23889 24.1182 9.44592 24.8155 10.7526 25.2725V28.1553C10.7526 28.4835 10.9811 28.7706 11.3033 28.8409C13.4537 29.3213 15.6569 29.2979 17.7018 28.8409C18.024 28.7706 18.2526 28.4835 18.2526 28.1553V25.2725C19.5533 24.8096 20.7604 24.1124 21.8151 23.2159L24.3112 24.6573C24.5983 24.8213 24.9557 24.7686 25.1783 24.5225C26.6256 22.9581 27.733 21.0713 28.3834 18.9795C28.4713 18.6573 28.3424 18.3174 28.0553 18.1534ZM14.4967 19.3428C11.9127 19.3428 9.8092 17.2393 9.8092 14.6553C9.8092 12.0713 11.9127 9.96783 14.4967 9.96783C17.0807 9.96783 19.1842 12.0713 19.1842 14.6553C19.1842 17.2393 17.0807 19.3428 14.4967 19.3428Z" fill="#0098C7"/>
</svg>
