<svg width="30" height="34" viewBox="0 0 30 34" fill="#004257" xmlns="http://www.w3.org/2000/svg">
<path d="M30 23.9062V1.59375C30 0.710547 29.2835 0 28.3929 0H6.42857C2.87946 0 0 2.85547 0 6.375V27.625C0 31.1445 2.87946 34 6.42857 34H28.3929C29.2835 34 30 33.2895 30 32.4062V31.3438C30 30.9605 29.8612 30.6047 29.6324 30.328C29.4991 30.1666 29.3718 29.9943 29.3359 29.7881C29.1458 28.6973 29.1455 26.5564 29.3348 25.4615C29.3711 25.2515 29.5022 25.0766 29.638 24.9123C29.8634 24.6395 30 24.2864 30 23.9062ZM8.57143 8.89844C8.57143 8.6793 8.75223 8.5 8.97321 8.5H23.1696C23.3906 8.5 23.5714 8.6793 23.5714 8.89844V10.2266C23.5714 10.4457 23.3906 10.625 23.1696 10.625H8.97321C8.75223 10.625 8.57143 10.4457 8.57143 10.2266V8.89844ZM8.57143 13.1484C8.57143 12.9293 8.75223 12.75 8.97321 12.75H23.1696C23.3906 12.75 23.5714 12.9293 23.5714 13.1484V14.4766C23.5714 14.6957 23.3906 14.875 23.1696 14.875H8.97321C8.75223 14.875 8.57143 14.6957 8.57143 14.4766V13.1484ZM25.4632 28.6346C25.4858 29.2306 25.0183 29.75 24.4219 29.75H6.42857C5.2433 29.75 4.28571 28.8004 4.28571 27.625C4.28571 26.4562 5.25 25.5 6.42857 25.5H24.4219C25.0183 25.5 25.4858 26.0194 25.4632 26.6154C25.4386 27.2645 25.4386 27.9855 25.4632 28.6346Z"/>
</svg>
