<svg width="31" height="35" viewBox="0 0 31 35" fill="#004257" xmlns="http://www.w3.org/2000/svg">
<path d="M21.5 20.1924C19.5781 20.1924 18.654 21.2549 15.5 21.2549C12.346 21.2549 11.4286 20.1924 9.5 20.1924C4.53125 20.1924 0.5 24.19 0.5 29.1174V30.8174C0.5 32.5771 1.93973 34.0049 3.71429 34.0049H27.2857C29.0603 34.0049 30.5 32.5771 30.5 30.8174V29.1174C30.5 24.19 26.4688 20.1924 21.5 20.1924ZM27.2857 30.8174H3.71429V29.1174C3.71429 25.9564 6.3125 23.3799 9.5 23.3799C10.4777 23.3799 12.0647 24.4424 15.5 24.4424C18.9621 24.4424 20.5156 23.3799 21.5 23.3799C24.6875 23.3799 27.2857 25.9564 27.2857 29.1174V30.8174ZM15.5 19.1299C20.8237 19.1299 25.1429 14.8467 25.1429 9.56738C25.1429 4.28809 20.8237 0.00488281 15.5 0.00488281C10.1763 0.00488281 5.85714 4.28809 5.85714 9.56738C5.85714 14.8467 10.1763 19.1299 15.5 19.1299ZM15.5 3.19238C19.0424 3.19238 21.9286 6.05449 21.9286 9.56738C21.9286 13.0803 19.0424 15.9424 15.5 15.9424C11.9576 15.9424 9.07143 13.0803 9.07143 9.56738C9.07143 6.05449 11.9576 3.19238 15.5 3.19238Z"/>
</svg>
