<svg width="35" height="36" viewBox="0 0 35 36" fill="#666666" xmlns="http://www.w3.org/2000/svg">
<path d="M24.062 6.56774C24.062 2.9434 21.124 0.00537109 17.4997 0.00537109C13.8753 0.00537109 10.9373 2.9434 10.9373 6.56774C10.9373 10.1921 13.8753 13.1301 17.4997 13.1301C21.124 13.1301 24.062 10.1921 24.062 6.56774ZM15.9678 16.4865C11.9121 14.0037 5.34286 13.3215 2.03707 13.1335C0.926251 13.0706 0 13.9169 0 14.9854V30.2155C0 31.1951 0.79227 32.012 1.8108 32.0646C4.79532 32.2211 10.8334 32.7947 15.0066 34.8967C15.6472 35.2193 16.4066 34.7798 16.4066 34.0853V17.2699C16.4059 16.9506 16.248 16.6581 15.9678 16.4865ZM32.9622 13.1335C29.6571 13.3208 23.0872 14.0037 19.0322 16.4865C18.752 16.6581 18.5941 16.9623 18.5941 17.2815V34.0832C18.5941 34.7798 19.3556 35.22 19.9981 34.8967C24.1707 32.7967 30.2054 32.2232 33.1892 32.0667C34.2077 32.0133 35 31.1965 35 30.2169V14.9854C34.9993 13.9169 34.0731 13.0706 32.9622 13.1335Z"/>
</svg>
