<svg width="36" height="32" viewBox="0 0 36 32" fill="none" xmlns="http://www.w3.org/2000/svg">
<g clip-path="url(#clip0)">
<path d="M35.2885 14.6682C31.9933 8.23876 25.4697 3.88867 18 3.88867C10.5303 3.88867 4.00483 8.2418 0.711425 14.6688C0.572423 14.9438 0.5 15.2475 0.5 15.5556C0.5 15.8637 0.572423 16.1675 0.711425 16.4425C4.00665 22.8719 10.5303 27.222 18 27.222C25.4697 27.222 31.9951 22.8689 35.2885 16.4419C35.4275 16.1669 35.4999 15.8631 35.4999 15.555C35.4999 15.2469 35.4275 14.9431 35.2885 14.6682ZM18 24.3053C16.2694 24.3053 14.5777 23.7922 13.1387 22.8307C11.6998 21.8692 10.5783 20.5027 9.91602 18.9038C9.25375 17.305 9.08047 15.5456 9.41809 13.8483C9.75572 12.151 10.5891 10.5919 11.8128 9.36815C13.0365 8.14444 14.5956 7.31109 16.2929 6.97347C17.9903 6.63585 19.7496 6.80913 21.3484 7.47139C22.9473 8.13366 24.3139 9.25517 25.2753 10.6941C26.2368 12.133 26.75 13.8248 26.75 15.5553C26.7505 16.7046 26.5246 17.8426 26.0851 18.9045C25.6455 19.9663 25.001 20.9311 24.1884 21.7438C23.3758 22.5564 22.411 23.2009 21.3491 23.6404C20.2873 24.08 19.1492 24.3059 18 24.3053ZM18 9.722C17.4793 9.72928 16.962 9.80674 16.462 9.9523C16.8741 10.5123 17.0719 11.2015 17.0195 11.8949C16.967 12.5882 16.6678 13.2398 16.1761 13.7315C15.6845 14.2232 15.0329 14.5224 14.3395 14.5748C13.6462 14.6273 12.957 14.4295 12.3969 14.0174C12.078 15.1923 12.1356 16.4377 12.5615 17.5782C12.9875 18.7187 13.7603 19.6969 14.7713 20.3751C15.7824 21.0533 16.9806 21.3975 18.1974 21.359C19.4143 21.3206 20.5884 20.9015 21.5546 20.1608C22.5208 19.4201 23.2303 18.3951 23.5835 17.23C23.9366 16.0649 23.9154 14.8184 23.523 13.6659C23.1305 12.5135 22.3866 11.5131 21.3958 10.8056C20.4051 10.0981 19.2174 9.71914 18 9.722Z" fill="#0098C7"/>
</g>
<defs>
<clipPath id="clip0">
<rect width="35" height="31.1111" fill="white" transform="translate(0.5)"/>
</clipPath>
</defs>
</svg>
